<svg width="183" height="199" viewBox="0 0 183 199" fill="none" xmlns="http://www.w3.org/2000/svg">
<path d="M91.9807 28.3939C90.9866 36.5903 82.6106 51.5559 93.4325 58.4663C81.1021 53.3256 70.6467 50.3478 56.1908 54.4569C60.1185 41.4233 59.9107 27.8229 59.6977 17.1039C68.4344 23.4561 78.5688 31.8083 91.9807 28.3939Z" fill="#9F2B2C"/>
<path d="M99.815 92.2984C102.726 115.267 57.2462 60.0512 93.4325 58.4663M93.4325 58.4663C82.6106 51.5559 90.9866 36.5903 91.9807 28.3939C78.5688 31.8083 68.4344 23.4561 59.6977 17.1039C59.9107 27.8229 60.1185 41.4233 56.1908 54.4569C70.6467 50.3478 81.1021 53.3256 93.4325 58.4663Z" stroke="#9F2B2C" stroke-width="13"/>
<path d="M152.28 60.3307C117.446 65.9148 105.73 76.6159 88.248 99.7221C62.2156 79.8633 49.3987 79.596 26.4948 84.0602C17.9347 100.879 11.8542 116.284 24.5395 144.018C37.8871 170.258 59.3075 178.138 104.38 185.235C151.25 164.099 159.058 145.396 168.958 116.773C168.031 95.8257 170.533 82.034 152.28 60.3307Z" fill="#E0A03F" stroke="#E0A03F" stroke-width="13"/>
</svg>
