<svg width="671" height="740" viewBox="0 0 671 740" fill="none" xmlns="http://www.w3.org/2000/svg">
<path d="M5.49512 311.844H2.99512V314.344H5.49512V311.844ZM40.2971 311.844L15.2971 297.41V326.278L40.2971 311.844ZM5.49512 193.701H2.99512V311.844H5.49512H7.99512V193.701H5.49512ZM5.49512 311.844V314.344H17.7971V311.844V309.344H5.49512V311.844Z" fill="#9F2B2C"/>
<path d="M5.49512 578.812H2.99512V581.312H5.49512V578.812ZM40.2971 578.812L15.2971 564.378V593.246L40.2971 578.812ZM5.49512 311.386H2.99512V578.812H5.49512H7.99512V311.386H5.49512ZM5.49512 578.812V581.312H17.7971V578.812V576.312H5.49512V578.812Z" fill="#9F2B2C"/>
<path d="M665.816 451.052H668.316V453.552H665.816V451.052ZM631.014 451.052L656.014 436.618V465.486L631.014 451.052ZM665.816 189.579H668.316V451.052H665.816H663.316V189.579H665.816ZM665.816 451.052V453.552H653.514V451.052V448.552H665.816V451.052Z" fill="#9F2B2C"/>
<path d="M665.816 718.02H668.316V720.52H665.816V718.02ZM631.014 718.02L656.014 703.586V732.454L631.014 718.02ZM665.816 450.594H668.316V718.02H665.816H663.316V450.594H665.816ZM665.816 718.02V720.52H653.514V718.02V715.52H665.816V718.02Z" fill="#9F2B2C"/>
<path d="M282.995 91.1262V93.6262H285.495V91.1262H282.995ZM121.807 91.1262V88.6262H119.307V91.1262H121.807ZM121.807 120.891L136.24 95.8911H107.373L121.807 120.891ZM282.995 69.146H280.495V91.1262H282.995H285.495V69.146H282.995ZM282.995 91.1262V88.6262H121.807V91.1262V93.6262H282.995V91.1262ZM121.807 91.1262H119.307V98.3911H121.807H124.307V91.1262H121.807Z" fill="#9F2B2C"/>
<path d="M401.139 90.6683V93.1683H398.639V90.6683H401.139ZM562.327 90.6683V88.1683H564.827V90.6683H562.327ZM562.327 120.433L547.893 95.4332H576.761L562.327 120.433ZM401.139 68.6881H403.639V90.6683H401.139H398.639V68.6881H401.139ZM401.139 90.6683V88.1683H562.327V90.6683V93.1683H401.139V90.6683ZM562.327 90.6683H564.827V97.9332H562.327H559.827V90.6683H562.327Z" fill="#9F2B2C"/>
<rect width="269.257" height="72.3515" transform="translate(206.064)" fill="#FEF3B1"/>
<path d="M263.889 51.6597V46.912L263.79 46.1207H264.746C265.648 46.0328 266.428 45.758 267.087 45.2964C267.769 44.8129 268.318 44.1095 268.736 43.1863C269.175 42.2412 269.494 41.0653 269.692 39.6585C269.912 38.2298 270.022 36.5263 270.022 34.5481V22.3491H285.749V46.1207L286.705 46.2196H287.034V51.4619H285.32L283.144 47.1758H267.78L265.571 51.6597H263.889ZM274.407 34.4492C274.407 36.0977 274.297 37.5594 274.077 38.8343C273.857 40.1091 273.517 41.2191 273.055 42.1643C272.593 43.1094 272.011 43.9117 271.308 44.5711C270.626 45.2085 269.813 45.7251 268.868 46.1207H281.298V23.4701H274.407V34.4492ZM300.06 30.1631C298.06 30.1631 296.565 30.8335 295.576 32.1743C294.587 33.4931 294.093 35.5812 294.093 38.4386V39.4937L304.94 36.5923C305.204 36.5263 305.412 36.3945 305.566 36.1966C305.72 35.9768 305.797 35.7351 305.797 35.4713V35.2735C305.511 33.6909 304.907 32.449 303.984 31.5478C303.061 30.6247 301.753 30.1631 300.06 30.1631ZM309.984 35.0097C310.006 35.0757 310.017 35.1746 310.017 35.3064C310.017 35.6142 309.929 35.8669 309.754 36.0648C309.6 36.2406 309.402 36.3615 309.16 36.4274L294.192 40.4498C294.433 42.6039 295.027 44.1864 295.972 45.1975C296.917 46.2086 298.28 46.7142 300.06 46.7142C301.643 46.7142 302.907 46.3075 303.852 45.4943C304.819 44.681 305.456 43.4061 305.764 41.6697C305.808 41.384 305.94 41.1642 306.16 41.0103C306.38 40.8345 306.621 40.7465 306.885 40.7465H308.797C309.105 40.7465 309.369 40.8564 309.589 41.0762C309.808 41.2741 309.918 41.5488 309.918 41.9005C309.918 42.0544 309.907 42.1643 309.885 42.2302C309.248 44.1425 308.116 45.5162 306.489 46.3515C304.885 47.1867 302.742 47.6154 300.06 47.6373H299.829C296.466 47.6373 293.939 46.923 292.246 45.4943C290.576 44.0436 289.741 41.7247 289.741 38.5375C289.741 35.3284 290.587 32.9985 292.279 31.5478C293.994 30.0752 296.587 29.3388 300.06 29.3388C305.577 29.3388 308.885 31.2291 309.984 35.0097ZM323.146 30.1631C321.146 30.1631 319.651 30.8335 318.662 32.1743C317.673 33.4931 317.178 35.5812 317.178 38.4386C317.178 41.296 317.662 43.3952 318.629 44.7359C319.618 46.0548 321.124 46.7142 323.146 46.7142C325.168 46.7142 326.663 46.0548 327.63 44.7359C328.619 43.3952 329.114 41.296 329.114 38.4386C329.114 35.5592 328.619 33.4601 327.63 32.1413C326.663 30.8225 325.168 30.1631 323.146 30.1631ZM323.146 29.2399C326.619 29.2399 329.212 29.9762 330.927 31.4489C332.641 32.9216 333.499 35.2515 333.499 38.4386C333.499 41.6258 332.641 43.9557 330.927 45.4283C329.212 46.879 326.619 47.6154 323.146 47.6373H322.816C320.596 47.6373 318.717 47.3186 317.178 46.6812V55.3194H312.826V29.8993H316.024C316.288 29.8993 316.508 29.9762 316.684 30.1301C316.882 30.262 317.101 30.3279 317.343 30.3279C317.409 30.3279 317.475 30.3279 317.541 30.3279C317.629 30.3279 317.706 30.3059 317.772 30.262C319.2 29.7125 320.992 29.4377 323.146 29.4377V29.2399ZM346.296 30.1631C344.296 30.1631 342.801 30.8335 341.812 32.1743C340.823 33.4931 340.328 35.5812 340.328 38.4386V39.4937L351.176 36.5923C351.439 36.5263 351.648 36.3945 351.802 36.1966C351.956 35.9768 352.033 35.7351 352.033 35.4713V35.2735C351.747 33.6909 351.143 32.449 350.219 31.5478C349.296 30.6247 347.988 30.1631 346.296 30.1631ZM356.22 35.0097C356.242 35.0757 356.253 35.1746 356.253 35.3064C356.253 35.6142 356.165 35.8669 355.989 36.0648C355.835 36.2406 355.638 36.3615 355.396 36.4274L340.427 40.4498C340.669 42.6039 341.262 44.1864 342.208 45.1975C343.153 46.2086 344.516 46.7142 346.296 46.7142C347.879 46.7142 349.142 46.3075 350.088 45.4943C351.055 44.681 351.692 43.4061 352 41.6697C352.044 41.384 352.176 41.1642 352.395 41.0103C352.615 40.8345 352.857 40.7465 353.121 40.7465H355.033C355.341 40.7465 355.605 40.8564 355.824 41.0762C356.044 41.2741 356.154 41.5488 356.154 41.9005C356.154 42.0544 356.143 42.1643 356.121 42.2302C355.484 44.1425 354.352 45.5162 352.725 46.3515C351.121 47.1867 348.978 47.6154 346.296 47.6373H346.065C342.702 47.6373 340.174 46.923 338.482 45.4943C336.811 44.0436 335.976 41.7247 335.976 38.5375C335.976 35.3284 336.822 32.9985 338.515 31.5478C340.229 30.0752 342.823 29.3388 346.296 29.3388C351.813 29.3388 355.121 31.2291 356.22 35.0097ZM377.261 33.9547C377.261 34.7899 376.965 35.4933 376.371 36.0648C375.8 36.6362 374.976 37.0978 373.898 37.4495C375.261 37.8452 376.316 38.4386 377.064 39.2299C377.811 39.9992 378.185 40.9554 378.185 42.0983C378.163 43.8787 377.382 45.1756 375.844 45.9888C374.327 46.8021 372.03 47.2087 368.953 47.2087H359.095V29.7345H367.766C370.997 29.7345 373.382 30.0861 374.921 30.7895C376.481 31.4709 377.261 32.5259 377.261 33.9547ZM368.59 45.9558C370.085 45.9558 371.195 45.6481 371.92 45.0327C372.646 44.3953 373.019 43.4061 373.041 42.0654C373.041 39.4497 371.569 38.1419 368.623 38.1419H364.139V45.9558H368.59ZM367.733 36.889C369.206 36.889 370.305 36.6582 371.03 36.1966C371.777 35.7131 372.151 34.9438 372.151 33.8887C372.151 32.8776 371.777 32.1523 371.03 31.7127C370.305 31.2511 369.217 31.0203 367.766 31.0203H364.172V36.889H367.733ZM379.798 47.1758V29.7015H384.216V35.3394H388.337C389.414 35.3394 390.458 35.4493 391.469 35.6691C392.48 35.8889 393.371 36.2406 394.14 36.7242C394.909 37.1858 395.525 37.7902 395.986 38.5375C396.47 39.2849 396.712 40.186 396.712 41.2411C396.712 42.0544 396.547 42.8237 396.217 43.549C395.887 44.2524 395.382 44.8788 394.7 45.4283C394.019 45.9558 393.151 46.3735 392.096 46.6812C391.041 46.9889 389.788 47.1428 388.337 47.1428L379.798 47.1758ZM384.216 36.4934V46.0218H388.337C389.041 46.0218 389.634 45.8899 390.118 45.6261C390.623 45.3404 391.03 44.9777 391.337 44.5381C391.667 44.0985 391.909 43.593 392.063 43.0215C392.217 42.428 392.294 41.8346 392.294 41.2411C392.294 40.6257 392.217 40.0322 392.063 39.4607C391.931 38.8892 391.7 38.3837 391.37 37.9441C391.063 37.5045 390.656 37.1528 390.151 36.889C389.645 36.6033 389.041 36.4604 388.337 36.4604L384.216 36.4934ZM415.729 29.9323V47.1758H411.278V41.6038H407.321L406.695 41.5708C406.189 42.494 405.684 43.4281 405.178 44.3733C404.695 45.3184 404.222 46.2526 403.761 47.1758H398.749L402.145 40.6806C401.046 40.1751 400.211 39.4717 399.639 38.5705C399.09 37.6473 398.815 36.7132 398.815 35.768C398.815 34.9548 398.98 34.1964 399.31 33.4931C399.661 32.7897 400.178 32.1743 400.859 31.6467C401.563 31.1192 402.442 30.7016 403.497 30.3939C404.574 30.0861 405.849 29.9323 407.321 29.9323H415.729ZM411.278 40.4828V31.0862H407.321C406.596 31.0862 405.981 31.2181 405.475 31.4819C404.969 31.7457 404.552 32.0973 404.222 32.5369C403.892 32.9765 403.651 33.4821 403.497 34.0536C403.343 34.6031 403.266 35.1746 403.266 35.768C403.266 36.3615 403.343 36.944 403.497 37.5155C403.651 38.0869 403.881 38.5925 404.189 39.0321C404.519 39.4717 404.937 39.8234 405.442 40.0871C405.97 40.3509 406.596 40.4828 407.321 40.4828H411.278Z" fill="#9F2B2C"/>
<rect width="269.257" height="72.3515" transform="translate(0 122.723)" fill="#FEF3B1"/>
<path d="M36.3145 145.995V169.898H31.9295V145.995H26.852V148.765C26.852 149.006 26.7641 149.226 26.5883 149.424C26.4124 149.6 26.1926 149.688 25.9289 149.688H23.4231C23.1594 149.688 22.9396 149.6 22.7637 149.424C22.5879 149.226 22.5 149.006 22.5 148.765V145.072H45.2824V148.765C45.2824 149.006 45.1945 149.226 45.0187 149.424C44.8428 149.6 44.623 149.688 44.3593 149.688H41.8535C41.5898 149.688 41.3699 149.6 41.1941 149.424C41.0183 149.226 40.9303 149.006 40.9303 148.765V145.995H36.3145ZM66.394 156.677C66.394 157.513 66.0972 158.216 65.5038 158.788C64.9323 159.359 64.108 159.821 63.031 160.172C64.3938 160.568 65.4488 161.161 66.1962 161.953C66.9435 162.722 67.3171 163.678 67.3171 164.821C67.2952 166.601 66.5149 167.898 64.9763 168.712C63.4596 169.525 61.1627 169.931 58.0855 169.931H48.2273V152.457H56.8985C60.1296 152.457 62.5145 152.809 64.0531 153.512C65.6137 154.194 66.394 155.249 66.394 156.677ZM57.7228 168.679C59.2174 168.679 60.3274 168.371 61.0528 167.755C61.7781 167.118 62.1518 166.129 62.1738 164.788C62.1738 162.172 60.7011 160.865 57.7558 160.865H53.2718V168.679H57.7228ZM56.8656 159.612C58.3382 159.612 59.4372 159.381 60.1626 158.919C60.9099 158.436 61.2836 157.667 61.2836 156.611C61.2836 155.6 60.9099 154.875 60.1626 154.435C59.4372 153.974 58.3492 153.743 56.8985 153.743H53.3048V159.612H56.8656ZM79.2171 151.963C82.69 151.963 85.2836 152.699 86.9981 154.172C88.7125 155.644 89.5698 157.974 89.5698 161.161C89.5698 164.348 88.7016 166.678 86.9651 168.151C85.2507 169.624 82.668 170.36 79.2171 170.36C75.6343 170.36 73.0187 169.635 71.3702 168.184C69.7217 166.711 68.8974 164.403 68.8974 161.26C68.8974 159.656 69.1062 158.282 69.5238 157.139C69.9634 155.974 70.6119 155.018 71.4691 154.271C72.3263 153.523 73.3924 152.963 74.6672 152.589C75.964 152.215 77.4807 152.007 79.2171 151.963ZM79.2171 152.985C77.2169 152.985 75.7223 153.655 74.7331 154.996C73.744 156.315 73.2495 158.403 73.2495 161.26C73.2495 164.118 73.733 166.217 74.7002 167.558C75.6893 168.876 77.1949 169.536 79.2171 169.536C81.2393 169.536 82.7339 168.876 83.7011 167.558C84.6902 166.217 85.1847 164.118 85.1847 161.26C85.1847 158.381 84.6902 156.282 83.7011 154.963C82.7339 153.644 81.2393 152.985 79.2171 152.985ZM102.625 152.886C100.625 152.886 99.1299 153.556 98.1408 154.897C97.1516 156.216 96.6571 158.304 96.6571 161.161C96.6571 164.019 97.1407 166.118 98.1078 167.459C99.0969 168.778 100.603 169.437 102.625 169.437C104.647 169.437 106.142 168.778 107.109 167.459C108.098 166.118 108.592 164.019 108.592 161.161C108.592 158.282 108.098 156.183 107.109 154.864C106.142 153.545 104.647 152.886 102.625 152.886ZM102.625 151.963C106.098 151.963 108.691 152.699 110.406 154.172C112.12 155.644 112.977 157.974 112.977 161.161C112.977 164.348 112.12 166.678 110.406 168.151C108.691 169.602 106.098 170.338 102.625 170.36H102.295C100.075 170.36 98.1957 170.041 96.6571 169.404V178.042H92.305V152.622H95.5031C95.7669 152.622 95.9867 152.699 96.1625 152.853C96.3604 152.985 96.5802 153.051 96.8219 153.051C96.8879 153.051 96.9538 153.051 97.0198 153.051C97.1077 153.051 97.1846 153.029 97.2506 152.985C98.6793 152.435 100.471 152.16 102.625 152.16V151.963ZM126.995 165.118C125.896 165.426 124.676 165.579 123.335 165.579H123.17C120.532 165.579 118.554 165.074 117.235 164.063C115.939 163.03 115.29 161.359 115.29 159.051V152.754H119.675V159.183C119.675 161.008 119.983 162.359 120.598 163.238C121.214 164.096 122.126 164.524 123.335 164.524C124.522 164.524 125.423 164.118 126.039 163.304C126.676 162.491 126.995 161.205 126.995 159.447V152.754H131.347V169.997H126.995V165.118ZM144.61 152.886C142.61 152.886 141.115 153.556 140.126 154.897C139.137 156.216 138.643 158.304 138.643 161.161V162.216L149.49 159.315C149.754 159.249 149.962 159.117 150.116 158.919C150.27 158.7 150.347 158.458 150.347 158.194V157.996C150.061 156.414 149.457 155.172 148.534 154.271C147.611 153.347 146.303 152.886 144.61 152.886ZM154.534 157.732C154.556 157.798 154.567 157.897 154.567 158.029C154.567 158.337 154.479 158.59 154.304 158.788C154.15 158.963 153.952 159.084 153.71 159.15L138.742 163.173C138.983 165.327 139.577 166.909 140.522 167.92C141.467 168.931 142.83 169.437 144.61 169.437C146.193 169.437 147.457 169.03 148.402 168.217C149.369 167.404 150.006 166.129 150.314 164.392C150.358 164.107 150.49 163.887 150.71 163.733C150.93 163.557 151.171 163.469 151.435 163.469H153.347C153.655 163.469 153.919 163.579 154.139 163.799C154.359 163.997 154.468 164.272 154.468 164.623C154.468 164.777 154.457 164.887 154.435 164.953C153.798 166.865 152.666 168.239 151.04 169.074C149.435 169.909 147.292 170.338 144.61 170.36H144.38C141.017 170.36 138.489 169.646 136.796 168.217C135.126 166.766 134.291 164.447 134.291 161.26C134.291 158.051 135.137 155.721 136.829 154.271C138.544 152.798 141.137 152.062 144.61 152.062C150.127 152.062 153.435 153.952 154.534 157.732ZM157.376 161.161C157.376 157.952 158.223 155.622 159.915 154.172C161.629 152.699 164.223 151.963 167.696 151.963C171.213 151.963 173.817 152.699 175.51 154.172C175.708 154.348 175.928 154.578 176.169 154.864C176.411 155.128 176.631 155.425 176.829 155.754C177.049 156.062 177.224 156.392 177.356 156.743C177.488 157.073 177.554 157.392 177.554 157.699C177.554 158.051 177.444 158.337 177.224 158.557C177.005 158.755 176.741 158.853 176.433 158.853H174.521C174.257 158.853 174.015 158.777 173.795 158.623C173.576 158.447 173.444 158.216 173.4 157.93C173.092 156.216 172.455 154.952 171.488 154.139C170.542 153.303 169.279 152.886 167.696 152.886C165.696 152.886 164.201 153.556 163.212 154.897C162.223 156.216 161.728 158.304 161.728 161.161C161.728 164.019 162.212 166.118 163.179 167.459C164.168 168.778 165.674 169.437 167.696 169.437C169.279 169.437 170.542 169.03 171.488 168.217C172.455 167.404 173.092 166.129 173.4 164.392C173.444 164.107 173.576 163.887 173.795 163.733C174.015 163.557 174.257 163.469 174.521 163.469H176.433C176.741 163.469 177.005 163.579 177.224 163.799C177.444 163.997 177.554 164.272 177.554 164.623C177.554 164.777 177.543 164.887 177.521 164.953C176.906 166.843 175.785 168.217 174.158 169.074C172.532 169.931 170.378 170.36 167.696 170.36C164.135 170.36 161.52 169.635 159.849 168.184C158.201 166.733 157.376 164.392 157.376 161.161ZM192.593 153.446V169.898H188.208V153.446H184.878V156.216C184.878 156.458 184.79 156.677 184.614 156.875C184.438 157.051 184.218 157.139 183.954 157.139H181.449C181.185 157.139 180.965 157.051 180.789 156.875C180.613 156.677 180.526 156.458 180.526 156.216V152.523H200.275V156.216C200.275 156.458 200.187 156.677 200.011 156.875C199.835 157.051 199.615 157.139 199.352 157.139H196.846C196.582 157.139 196.362 157.051 196.186 156.875C196.011 156.677 195.923 156.458 195.923 156.216V153.446H192.593ZM220.813 156.677C220.813 157.513 220.517 158.216 219.923 158.788C219.352 159.359 218.527 159.821 217.45 160.172C218.813 160.568 219.868 161.161 220.616 161.953C221.363 162.722 221.737 163.678 221.737 164.821C221.715 166.601 220.934 167.898 219.396 168.712C217.879 169.525 215.582 169.931 212.505 169.931H202.647V152.457H211.318C214.549 152.457 216.934 152.809 218.473 153.512C220.033 154.194 220.813 155.249 220.813 156.677ZM212.142 168.679C213.637 168.679 214.747 168.371 215.472 167.755C216.198 167.118 216.571 166.129 216.593 164.788C216.593 162.172 215.121 160.865 212.175 160.865H207.691V168.679H212.142ZM211.285 159.612C212.758 159.612 213.857 159.381 214.582 158.919C215.329 158.436 215.703 157.667 215.703 156.611C215.703 155.6 215.329 154.875 214.582 154.435C213.857 153.974 212.769 153.743 211.318 153.743H207.724V159.612H211.285ZM233.637 151.963C237.109 151.963 239.703 152.699 241.418 154.172C243.132 155.644 243.989 157.974 243.989 161.161C243.989 164.348 243.121 166.678 241.385 168.151C239.67 169.624 237.087 170.36 233.637 170.36C230.054 170.36 227.438 169.635 225.79 168.184C224.141 166.711 223.317 164.403 223.317 161.26C223.317 159.656 223.526 158.282 223.943 157.139C224.383 155.974 225.031 155.018 225.889 154.271C226.746 153.523 227.812 152.963 229.087 152.589C230.383 152.215 231.9 152.007 233.637 151.963ZM233.637 152.985C231.636 152.985 230.142 153.655 229.153 154.996C228.163 156.315 227.669 158.403 227.669 161.26C227.669 164.118 228.153 166.217 229.12 167.558C230.109 168.876 231.614 169.536 233.637 169.536C235.659 169.536 237.153 168.876 238.121 167.558C239.11 166.217 239.604 164.118 239.604 161.26C239.604 158.381 239.11 156.282 238.121 154.963C237.153 153.644 235.659 152.985 233.637 152.985Z" fill="#9F2B2C"/>
<rect width="269.257" height="72.3515" transform="translate(401.139 122.723)" fill="#FEF3B1"/>
<path d="M494.147 145.072H498.499V169.898H494.147V161.623H482.244V169.898H477.892V145.072H482.244V160.7H494.147V145.072ZM517.55 169.239C515.923 169.986 513.89 170.36 511.45 170.36C505.933 170.36 502.625 168.47 501.526 164.689C501.504 164.623 501.493 164.524 501.493 164.392C501.493 164.085 501.57 163.843 501.724 163.667C501.9 163.469 502.109 163.337 502.35 163.271L517.319 159.249C517.077 157.095 516.484 155.512 515.538 154.501C514.593 153.49 513.231 152.985 511.45 152.985C509.868 152.985 508.593 153.391 507.626 154.205C506.68 155.018 506.054 156.293 505.746 158.029C505.702 158.315 505.57 158.546 505.351 158.722C505.131 158.875 504.889 158.952 504.625 158.952H502.713C502.405 158.952 502.141 158.853 501.922 158.656C501.702 158.436 501.592 158.15 501.592 157.798C501.592 157.645 501.603 157.535 501.625 157.469C502.262 155.556 503.383 154.183 504.988 153.347C506.614 152.512 508.769 152.084 511.45 152.062H511.681C515.044 152.062 517.561 152.787 519.231 154.238C520.924 155.666 521.77 157.974 521.77 161.161C521.77 161.337 521.759 161.557 521.737 161.821C521.737 162.063 521.726 162.48 521.704 163.074C521.704 163.667 521.693 164.513 521.671 165.612C521.671 166.689 521.66 168.151 521.638 169.997H517.55V169.239ZM511.45 169.536C513.45 169.536 514.945 168.876 515.934 167.558C516.923 166.217 517.418 164.118 517.418 161.26V160.205L506.571 163.107C506.307 163.173 506.098 163.315 505.944 163.535C505.79 163.733 505.713 163.964 505.713 164.228V164.425C505.999 166.008 506.603 167.261 507.527 168.184C508.45 169.085 509.758 169.536 511.45 169.536ZM532.532 177.91H527.554L533.752 169.964C532.521 169.481 531.411 168.624 530.422 167.393C529.433 166.162 528.576 164.744 527.85 163.14C527.147 161.513 526.597 159.777 526.202 157.93C525.828 156.062 525.641 154.249 525.641 152.49H529.993V152.688C529.993 153.325 530.026 154.183 530.092 155.26C530.158 156.337 530.268 157.502 530.422 158.755C530.598 159.985 530.818 161.249 531.081 162.546C531.367 163.821 531.73 164.975 532.169 166.008C532.609 167.041 533.136 167.887 533.752 168.547C534.367 169.184 534.587 169.426 534.411 169.272C536.236 167.272 537.928 164.898 539.489 162.15C541.049 159.403 541.841 157.326 541.863 155.919C541.885 154.512 541.896 153.435 541.896 152.688V152.49H546.248C546.248 154.38 546.017 156.139 545.555 157.765C545.094 159.392 544.544 161.029 543.907 162.678C543.269 164.327 539.478 169.404 532.532 177.91ZM554.155 152.391V158.623H558.144C559.441 158.623 560.397 158.227 561.012 157.436C561.628 156.622 561.936 155.326 561.936 153.545V152.391H566.518V153.545C566.518 155.15 566.167 156.425 565.463 157.37C564.782 158.293 563.639 158.974 562.035 159.414C562.826 161.128 563.617 162.876 564.408 164.656C565.222 166.437 566.024 168.184 566.815 169.898H561.771L556.957 159.908H554.155V169.898H549.209V152.391H554.155ZM585.551 169.239C583.924 169.986 581.891 170.36 579.451 170.36C573.934 170.36 570.626 168.47 569.527 164.689C569.505 164.623 569.494 164.524 569.494 164.392C569.494 164.085 569.571 163.843 569.725 163.667C569.901 163.469 570.11 163.337 570.352 163.271L585.32 159.249C585.078 157.095 584.485 155.512 583.54 154.501C582.595 153.49 581.232 152.985 579.451 152.985C577.869 152.985 576.594 153.391 575.627 154.205C574.682 155.018 574.055 156.293 573.747 158.029C573.704 158.315 573.572 158.546 573.352 158.722C573.132 158.875 572.89 158.952 572.627 158.952H570.714C570.407 158.952 570.143 158.853 569.923 158.656C569.703 158.436 569.593 158.15 569.593 157.798C569.593 157.645 569.604 157.535 569.626 157.469C570.264 155.556 571.385 154.183 572.989 153.347C574.616 152.512 576.77 152.084 579.451 152.062H579.682C583.045 152.062 585.562 152.787 587.232 154.238C588.925 155.666 589.771 157.974 589.771 161.161C589.771 161.337 589.76 161.557 589.738 161.821C589.738 162.063 589.727 162.48 589.705 163.074C589.705 163.667 589.694 164.513 589.672 165.612C589.672 166.689 589.661 168.151 589.639 169.997H585.551V169.239ZM579.451 169.536C581.452 169.536 582.946 168.876 583.935 167.558C584.924 166.217 585.419 164.118 585.419 161.26V160.205L574.572 163.107C574.308 163.173 574.099 163.315 573.945 163.535C573.791 163.733 573.715 163.964 573.715 164.228V164.425C574 166.008 574.605 167.261 575.528 168.184C576.451 169.085 577.759 169.536 579.451 169.536Z" fill="#9F2B2C"/>
<rect width="269.257" height="72.3515" transform="translate(45.792 265.594)" fill="#FEF3B1"/>
<path d="M106.227 287.943V300.043H112.194C114.239 300.043 115.744 299.549 116.711 298.56C117.679 297.549 118.162 295.966 118.162 293.812V287.943H122.514V293.812C122.514 295.724 122.02 297.23 121.031 298.329C120.041 299.406 118.536 300.164 116.514 300.604L122.811 312.77H117.766L111.766 301.032H106.293V312.77H101.875V287.943H106.227ZM141.371 312.11C139.745 312.858 137.711 313.231 135.272 313.231C129.755 313.231 126.447 311.341 125.348 307.56C125.326 307.495 125.315 307.396 125.315 307.264C125.315 306.956 125.392 306.714 125.545 306.538C125.721 306.341 125.93 306.209 126.172 306.143L141.14 302.12C140.899 299.966 140.305 298.384 139.36 297.373C138.415 296.362 137.052 295.856 135.272 295.856C133.689 295.856 132.414 296.263 131.447 297.076C130.502 297.889 129.875 299.164 129.568 300.9C129.524 301.186 129.392 301.417 129.172 301.593C128.952 301.747 128.711 301.824 128.447 301.824H126.534C126.227 301.824 125.963 301.725 125.743 301.527C125.523 301.307 125.414 301.021 125.414 300.67C125.414 300.516 125.424 300.406 125.446 300.34C126.084 298.428 127.205 297.054 128.809 296.219C130.436 295.383 132.59 294.955 135.272 294.933H135.502C138.865 294.933 141.382 295.658 143.053 297.109C144.745 298.538 145.591 300.846 145.591 304.033C145.591 304.209 145.58 304.428 145.558 304.692C145.558 304.934 145.547 305.351 145.525 305.945C145.525 306.538 145.514 307.385 145.492 308.484C145.492 309.561 145.481 311.022 145.459 312.869H141.371V312.11ZM135.272 312.407C137.272 312.407 138.766 311.748 139.756 310.429C140.745 309.088 141.239 306.989 141.239 304.132V303.077L130.392 305.978C130.128 306.044 129.919 306.187 129.766 306.407C129.612 306.604 129.535 306.835 129.535 307.099V307.297C129.821 308.879 130.425 310.132 131.348 311.055C132.271 311.957 133.579 312.407 135.272 312.407ZM159.782 295.757C157.782 295.757 156.288 296.428 155.298 297.768C154.309 299.087 153.815 301.175 153.815 304.033C153.815 306.89 154.298 308.989 155.266 310.33C156.255 311.649 157.76 312.308 159.782 312.308C161.805 312.308 163.299 311.649 164.266 310.33C165.256 308.989 165.75 306.89 165.75 304.033C165.75 301.153 165.256 299.054 164.266 297.735C163.299 296.417 161.805 295.757 159.782 295.757ZM159.782 294.834C163.255 294.834 165.849 295.57 167.563 297.043C169.278 298.516 170.135 300.846 170.135 304.033C170.135 307.22 169.278 309.55 167.563 311.022C165.849 312.473 163.255 313.209 159.782 313.231H159.453C157.233 313.231 155.353 312.913 153.815 312.275V320.913H149.463V295.493H152.661C152.925 295.493 153.144 295.57 153.32 295.724C153.518 295.856 153.738 295.922 153.98 295.922C154.046 295.922 154.112 295.922 154.178 295.922C154.265 295.922 154.342 295.9 154.408 295.856C155.837 295.307 157.628 295.032 159.782 295.032V294.834ZM184.647 296.318V312.77H180.262V296.318H176.932V299.087C176.932 299.329 176.844 299.549 176.668 299.747C176.492 299.922 176.272 300.01 176.009 300.01H173.503C173.239 300.01 173.019 299.922 172.844 299.747C172.668 299.549 172.58 299.329 172.58 299.087V295.394H192.329V299.087C192.329 299.329 192.241 299.549 192.065 299.747C191.889 299.922 191.67 300.01 191.406 300.01H188.9C188.636 300.01 188.417 299.922 188.241 299.747C188.065 299.549 187.977 299.329 187.977 299.087V296.318H184.647ZM194.833 295.559H199.152V309.077C200.471 306.813 201.79 304.56 203.109 302.318C204.427 300.054 205.735 297.801 207.032 295.559H211.45V312.77H207.131V299.252C205.812 301.516 204.493 303.78 203.174 306.044C201.856 308.286 200.548 310.528 199.251 312.77H194.833V295.559ZM226.676 295.427H231.291V312.77H226.676V307.132H218.829V312.77H214.18V295.427H218.829V306.077H226.676V295.427ZM234.045 312.77V295.296H238.463V300.933H240.606C241.683 300.933 242.727 301.043 243.738 301.263C244.749 301.483 245.64 301.835 246.409 302.318C247.178 302.78 247.794 303.384 248.255 304.132C248.739 304.879 248.981 305.78 248.981 306.835C248.981 307.648 248.816 308.418 248.486 309.143C248.156 309.846 247.651 310.473 246.969 311.022C246.288 311.55 245.42 311.968 244.365 312.275C243.31 312.583 242.057 312.737 240.606 312.737L234.045 312.77ZM238.463 302.087V311.616H240.606C241.309 311.616 241.903 311.484 242.386 311.22C242.892 310.934 243.299 310.572 243.606 310.132C243.936 309.693 244.178 309.187 244.332 308.616C244.486 308.022 244.562 307.429 244.562 306.835C244.562 306.22 244.486 305.626 244.332 305.055C244.2 304.483 243.969 303.978 243.639 303.538C243.332 303.099 242.925 302.747 242.419 302.483C241.914 302.197 241.309 302.054 240.606 302.054L238.463 302.087ZM251.948 295.23H255.97V312.77H251.948V295.23Z" fill="#9F2B2C"/>
<rect width="269.257" height="72.3515" transform="translate(45.792 531.188)" fill="#FEF3B1"/>
<path d="M134.142 553.537V565.637H140.11C142.154 565.637 143.66 565.143 144.627 564.154C145.594 563.143 146.077 561.56 146.077 559.406V553.537H150.429V559.406C150.429 561.318 149.935 562.824 148.946 563.923C147.957 565 146.451 565.758 144.429 566.198L150.726 578.364H145.682L139.681 566.626H134.208V578.364H129.79V553.537H134.142ZM165.726 561.021H170.341V578.364H165.726V572.726H157.879V578.364H153.23V561.021H157.879V571.671H165.726V561.021ZM173.293 561.153H177.612V574.671C178.931 572.407 180.25 570.154 181.568 567.912C182.887 565.648 184.195 563.395 185.492 561.153H189.91V578.364H185.591V564.846C184.272 567.11 182.953 569.374 181.634 571.638C180.315 573.88 179.008 576.122 177.711 578.364H173.293V561.153ZM196.959 578.265H192.64V560.989H208.63V563.494C208.63 563.824 208.498 564.088 208.235 564.286C207.971 564.483 207.619 564.582 207.18 564.582H205.729C205.289 564.582 204.938 564.483 204.674 564.286C204.41 564.088 204.278 563.824 204.278 563.494V562.241H197.058L196.959 578.265ZM211.704 561.153H216.024V574.671C217.342 572.407 218.661 570.154 219.98 567.912C221.299 565.648 222.607 563.395 223.904 561.153H228.322V578.364H224.002V564.846C222.684 567.11 221.365 569.374 220.046 571.638C218.727 573.88 217.419 576.122 216.123 578.364H211.704V561.153Z" fill="#9F2B2C"/>
<rect width="269.257" height="72.3515" transform="translate(347.104 398.391)" fill="#FEF3B1"/>
<path d="M395.867 421.663L391.35 445.567H390.13L394.878 420.74H402.956L405.066 428.62L407.176 420.74H414.462L419.441 445.567H414.924L410.209 421.663H408.033L403.912 437.06H402.824L398.702 421.663H395.867ZM432.1 428.554C430.1 428.554 428.605 429.225 427.616 430.565C426.627 431.884 426.132 433.972 426.132 436.83V437.885L436.98 434.983C437.243 434.917 437.452 434.786 437.606 434.588C437.76 434.368 437.837 434.126 437.837 433.862V433.665C437.551 432.082 436.947 430.84 436.024 429.939C435.1 429.016 433.793 428.554 432.1 428.554ZM442.024 433.401C442.046 433.467 442.057 433.566 442.057 433.698C442.057 434.005 441.969 434.258 441.793 434.456C441.639 434.632 441.442 434.753 441.2 434.819L426.231 438.841C426.473 440.995 427.067 442.578 428.012 443.589C428.957 444.6 430.32 445.105 432.1 445.105C433.683 445.105 434.947 444.699 435.892 443.885C436.859 443.072 437.496 441.797 437.804 440.061C437.848 439.775 437.98 439.555 438.2 439.401C438.419 439.226 438.661 439.138 438.925 439.138H440.837C441.145 439.138 441.409 439.248 441.628 439.467C441.848 439.665 441.958 439.94 441.958 440.292C441.958 440.445 441.947 440.555 441.925 440.621C441.288 442.534 440.156 443.907 438.529 444.743C436.925 445.578 434.782 446.006 432.1 446.028H431.869C428.506 446.028 425.979 445.314 424.286 443.885C422.616 442.435 421.78 440.116 421.78 436.929C421.78 433.719 422.627 431.39 424.319 429.939C426.034 428.466 428.627 427.73 432.1 427.73C437.617 427.73 440.925 429.62 442.024 433.401ZM445.525 448.732V445.171L445.459 444.314H446.844C448.075 444.248 448.965 443.633 449.515 442.468C450.086 441.281 450.372 439.39 450.372 436.797V428.159H464.055V444.38H465.044V448.633H462.604L460.89 445.699H449.68C449.394 446.204 449.097 446.71 448.789 447.215C448.504 447.743 448.218 448.248 447.932 448.732H445.525ZM455.12 436.731C455.12 438.753 454.856 440.369 454.329 441.577C453.801 442.764 452.911 443.677 451.658 444.314H459.241V429.576H455.12V436.731ZM468.535 428.356H472.854V441.874C474.173 439.61 475.492 437.357 476.811 435.115C478.129 432.851 479.437 430.598 480.734 428.356H485.152V445.567H480.833V432.049C479.514 434.313 478.195 436.577 476.877 438.841C475.558 441.083 474.25 443.325 472.953 445.567H468.535V428.356ZM506.213 449.523L504.202 445.567H487.882V428.224H492.531V444.479H500.378V428.224H504.994V444.479H507.994L507.928 449.523H506.213ZM509.941 428.356H514.26V441.874C515.579 439.61 516.898 437.357 518.217 435.115C519.536 432.851 520.843 430.598 522.14 428.356H526.558V445.567H522.239V432.049C520.92 434.313 519.601 436.577 518.283 438.841C516.964 441.083 515.656 443.325 514.359 445.567H509.941V428.356ZM541.784 428.224H546.4V445.567H541.784V439.929H533.937V445.567H529.288V428.224H533.937V438.874H541.784V428.224ZM565.243 444.907C563.616 445.655 561.583 446.028 559.143 446.028C553.626 446.028 550.318 444.138 549.219 440.358C549.197 440.292 549.186 440.193 549.186 440.061C549.186 439.753 549.263 439.511 549.417 439.335C549.593 439.138 549.802 439.006 550.043 438.94L565.012 434.917C564.77 432.763 564.177 431.181 563.231 430.17C562.286 429.159 560.924 428.653 559.143 428.653C557.561 428.653 556.286 429.06 555.319 429.873C554.373 430.686 553.747 431.961 553.439 433.698C553.395 433.983 553.263 434.214 553.044 434.39C552.824 434.544 552.582 434.621 552.318 434.621H550.406C550.098 434.621 549.835 434.522 549.615 434.324C549.395 434.104 549.285 433.818 549.285 433.467C549.285 433.313 549.296 433.203 549.318 433.137C549.955 431.225 551.076 429.851 552.681 429.016C554.307 428.18 556.462 427.752 559.143 427.73H559.374C562.737 427.73 565.254 428.455 566.924 429.906C568.617 431.335 569.463 433.643 569.463 436.83C569.463 437.006 569.452 437.225 569.43 437.489C569.43 437.731 569.419 438.149 569.397 438.742C569.397 439.335 569.386 440.182 569.364 441.281C569.364 442.358 569.353 443.819 569.331 445.666H565.243V444.907ZM559.143 445.204C561.143 445.204 562.638 444.545 563.627 443.226C564.616 441.885 565.111 439.786 565.111 436.929V435.874L554.264 438.775C554 438.841 553.791 438.984 553.637 439.204C553.483 439.401 553.406 439.632 553.406 439.896V440.094C553.692 441.676 554.296 442.929 555.22 443.852C556.143 444.754 557.451 445.204 559.143 445.204Z" fill="#9F2B2C"/>
<rect width="269.257" height="72.3515" transform="translate(347.104 667.648)" fill="#FEF3B1"/>
<path d="M354.005 689.998H358.027V712.813L369.929 689.998H374.281V714.824H370.259V692.009L358.357 714.824H354.005V689.998ZM390.294 697.482H394.91V714.824H390.294V709.186H382.447V714.824H377.799V697.482H382.447V708.131H390.294V697.482ZM414.973 696.888C417.808 696.888 419.919 697.625 421.303 699.097C422.688 700.57 423.38 702.9 423.38 706.087C423.38 709.274 422.732 711.604 421.435 713.077C420.16 714.528 418.226 715.264 415.632 715.286H415.402C414.72 715.286 414.127 715.253 413.621 715.187C413.138 715.121 412.665 715 412.204 714.824V722.968H407.917L407.818 714.956C407.423 715.11 406.994 715.231 406.533 715.319C406.071 715.407 405.566 715.462 405.016 715.484H405.181V715.681C402.345 715.681 400.235 714.945 398.851 713.472C397.466 712 396.773 709.67 396.773 706.483C396.773 703.296 397.411 700.977 398.686 699.526C399.961 698.075 401.906 697.328 404.521 697.284H404.752C405.39 697.284 405.961 697.317 406.467 697.383C406.994 697.449 407.478 697.57 407.917 697.746V689.602H412.237L412.335 697.581C412.709 697.449 413.127 697.339 413.588 697.251C414.072 697.163 414.588 697.108 415.138 697.086H414.973V696.888ZM415.632 697.812C414.577 697.812 413.764 698.383 413.193 699.526C412.643 700.647 412.324 702.427 412.237 704.867V707.307C412.324 709.747 412.643 711.538 413.193 712.681C413.764 713.802 414.577 714.363 415.632 714.363C416.775 714.363 417.633 713.703 418.204 712.384C418.776 711.044 419.061 708.945 419.061 706.087C419.061 703.208 418.776 701.109 418.204 699.79C417.655 698.471 416.797 697.812 415.632 697.812ZM404.521 714.758C405.533 714.758 406.324 714.165 406.895 712.978C407.467 711.791 407.808 710.044 407.917 707.736V705.263C407.808 702.955 407.467 701.208 406.895 700.021C406.324 698.812 405.533 698.207 404.521 698.207C403.357 698.207 402.488 698.878 401.917 700.218C401.367 701.537 401.093 703.625 401.093 706.483C401.093 709.362 401.367 711.461 401.917 712.78C402.488 714.099 403.357 714.758 404.521 714.758ZM436.06 696.888C439.533 696.888 442.127 697.625 443.841 699.097C445.556 700.57 446.413 702.9 446.413 706.087C446.413 709.274 445.545 711.604 443.808 713.077C442.094 714.549 439.511 715.286 436.06 715.286C432.478 715.286 429.862 714.56 428.213 713.11C426.565 711.637 425.741 709.329 425.741 706.186C425.741 704.581 425.949 703.208 426.367 702.065C426.807 700.9 427.455 699.944 428.312 699.196C429.17 698.449 430.236 697.888 431.51 697.515C432.807 697.141 434.324 696.932 436.06 696.888ZM436.06 697.91C434.06 697.91 432.566 698.581 431.576 699.922C430.587 701.24 430.093 703.329 430.093 706.186C430.093 709.043 430.576 711.143 431.543 712.483C432.533 713.802 434.038 714.462 436.06 714.462C438.083 714.462 439.577 713.802 440.544 712.483C441.533 711.143 442.028 709.043 442.028 706.186C442.028 703.307 441.533 701.208 440.544 699.889C439.577 698.57 438.083 697.91 436.06 697.91ZM459.468 697.812C457.468 697.812 455.973 698.482 454.984 699.823C453.995 701.142 453.5 703.23 453.5 706.087C453.5 708.945 453.984 711.044 454.951 712.384C455.94 713.703 457.446 714.363 459.468 714.363C461.49 714.363 462.985 713.703 463.952 712.384C464.941 711.044 465.436 708.945 465.436 706.087C465.436 703.208 464.941 701.109 463.952 699.79C462.985 698.471 461.49 697.812 459.468 697.812ZM459.468 696.888C462.941 696.888 465.535 697.625 467.249 699.097C468.963 700.57 469.821 702.9 469.821 706.087C469.821 709.274 468.963 711.604 467.249 713.077C465.535 714.528 462.941 715.264 459.468 715.286H459.138C456.918 715.286 455.039 714.967 453.5 714.33V722.968H449.148V697.548H452.346C452.61 697.548 452.83 697.625 453.006 697.779C453.204 697.91 453.423 697.976 453.665 697.976C453.731 697.976 453.797 697.976 453.863 697.976C453.951 697.976 454.028 697.954 454.094 697.91C455.523 697.361 457.314 697.086 459.468 697.086V696.888ZM477.705 698.504C477.112 701.208 476.508 703.944 475.892 706.714C475.277 709.461 474.694 712.198 474.145 714.923H471.804L475.727 697.449H483.409L484.53 701.01C484.706 700.416 484.882 699.823 485.058 699.229C485.256 698.614 485.443 698.02 485.618 697.449H492.641L496.729 714.923H491.85L488.058 698.504H487.465C486.937 700.24 486.388 701.999 485.816 703.779C485.267 705.56 484.717 707.329 484.168 709.087H482.091L478.826 698.504H477.705ZM515.401 714.165C513.774 714.912 511.741 715.286 509.301 715.286C503.784 715.286 500.476 713.396 499.377 709.615C499.355 709.549 499.344 709.45 499.344 709.318C499.344 709.01 499.421 708.769 499.575 708.593C499.751 708.395 499.96 708.263 500.202 708.197L515.17 704.175C514.928 702.021 514.335 700.438 513.39 699.427C512.444 698.416 511.082 697.91 509.301 697.91C507.719 697.91 506.444 698.317 505.477 699.13C504.532 699.944 503.905 701.218 503.597 702.955C503.553 703.241 503.422 703.471 503.202 703.647C502.982 703.801 502.74 703.878 502.476 703.878H500.564C500.256 703.878 499.993 703.779 499.773 703.581C499.553 703.362 499.443 703.076 499.443 702.724C499.443 702.57 499.454 702.46 499.476 702.394C500.114 700.482 501.235 699.108 502.839 698.273C504.466 697.438 506.62 697.009 509.301 696.987H509.532C512.895 696.987 515.412 697.713 517.082 699.163C518.775 700.592 519.621 702.9 519.621 706.087C519.621 706.263 519.61 706.483 519.588 706.747C519.588 706.988 519.577 707.406 519.555 707.999C519.555 708.593 519.544 709.439 519.522 710.538C519.522 711.615 519.511 713.077 519.489 714.923H515.401V714.165ZM509.301 714.462C511.302 714.462 512.796 713.802 513.785 712.483C514.774 711.143 515.269 709.043 515.269 706.186V705.131L504.422 708.032C504.158 708.098 503.949 708.241 503.795 708.461C503.641 708.659 503.564 708.89 503.564 709.153V709.351C503.85 710.934 504.455 712.187 505.378 713.11C506.301 714.011 507.609 714.462 509.301 714.462ZM535.527 698.372V714.824H531.142V698.372H527.812V701.142C527.812 701.383 527.724 701.603 527.548 701.801C527.372 701.977 527.152 702.065 526.888 702.065H524.383C524.119 702.065 523.899 701.977 523.723 701.801C523.547 701.603 523.459 701.383 523.459 701.142V697.449H543.209V701.142C543.209 701.383 543.121 701.603 542.945 701.801C542.769 701.977 542.549 702.065 542.286 702.065H539.78C539.516 702.065 539.296 701.977 539.12 701.801C538.945 701.603 538.857 701.383 538.857 701.142V698.372H535.527ZM545.713 697.614H550.032V711.132C551.351 708.868 552.669 706.615 553.988 704.373C555.307 702.109 556.615 699.856 557.912 697.614H562.33V714.824H558.011V701.306C556.692 703.57 555.373 705.834 554.054 708.098C552.735 710.34 551.427 712.582 550.131 714.824H545.713V697.614ZM569.972 697.317V703.548H573.961C575.258 703.548 576.214 703.153 576.83 702.361C577.445 701.548 577.753 700.251 577.753 698.471V697.317H582.336V698.471C582.336 700.076 581.984 701.35 581.281 702.296C580.599 703.219 579.457 703.9 577.852 704.34C578.643 706.054 579.435 707.802 580.226 709.582C581.039 711.362 581.841 713.11 582.633 714.824H577.588L572.775 704.834H569.972V714.824H565.027V697.317H569.972ZM601.368 714.165C599.742 714.912 597.709 715.286 595.269 715.286C589.752 715.286 586.444 713.396 585.345 709.615C585.323 709.549 585.312 709.45 585.312 709.318C585.312 709.01 585.389 708.769 585.543 708.593C585.718 708.395 585.927 708.263 586.169 708.197L601.137 704.175C600.896 702.021 600.302 700.438 599.357 699.427C598.412 698.416 597.049 697.91 595.269 697.91C593.686 697.91 592.411 698.317 591.444 699.13C590.499 699.944 589.873 701.218 589.565 702.955C589.521 703.241 589.389 703.471 589.169 703.647C588.949 703.801 588.708 703.878 588.444 703.878H586.532C586.224 703.878 585.96 703.779 585.74 703.581C585.521 703.362 585.411 703.076 585.411 702.724C585.411 702.57 585.422 702.46 585.444 702.394C586.081 700.482 587.202 699.108 588.807 698.273C590.433 697.438 592.587 697.009 595.269 696.987H595.5C598.863 696.987 601.379 697.713 603.05 699.163C604.742 700.592 605.588 702.9 605.588 706.087C605.588 706.263 605.577 706.483 605.556 706.747C605.556 706.988 605.545 707.406 605.523 707.999C605.523 708.593 605.512 709.439 605.49 710.538C605.49 711.615 605.479 713.077 605.457 714.923H601.368V714.165ZM595.269 714.462C597.269 714.462 598.764 713.802 599.753 712.483C600.742 711.143 601.236 709.043 601.236 706.186V705.131L590.389 708.032C590.125 708.098 589.917 708.241 589.763 708.461C589.609 708.659 589.532 708.89 589.532 709.153V709.351C589.818 710.934 590.422 712.187 591.345 713.11C592.268 714.011 593.576 714.462 595.269 714.462Z" fill="#9F2B2C"/>
</svg>
