<svg width="497" height="440" viewBox="0 0 497 440" fill="none" xmlns="http://www.w3.org/2000/svg">
<path d="M12.4318 324.5C51.0998 378.965 81.8358 399.141 152.432 416C175.508 391.531 251.128 372.054 301.432 392L203.432 281C109.175 226.682 51.8636 199.698 53.4318 71C2.21018 169.294 -12.6632 223.956 12.4318 324.5Z" fill="#9F2B2C" stroke="#9F2B2C"/>
<path d="M74.9827 283.743C100.975 345.602 137.051 375.348 223.738 423.278C224.283 395.004 272.932 412 272.932 412C272.932 412 215.007 313.213 243.831 273.621C157.774 215.109 138.162 160.183 118.413 50.4473C77.7323 128.576 66.9315 178.938 74.9827 283.743Z" fill="#E0A03F" stroke="#E0A03F"/>
<path d="M105.412 242.041C122.907 306.505 222.134 423 222.134 423C222.134 423 233.305 386.918 273.634 423L299.689 267.135C229.972 183.624 185.495 138.517 231.385 18.2687C149.386 92.8445 116.561 139.014 105.412 242.041Z" fill="#9F2B2C" stroke="#9F2B2C"/>
<path d="M484.426 324.5C445.758 378.965 415.022 399.141 344.426 416C321.35 391.531 280.236 380.554 229.932 400.5L293.426 281C387.682 226.682 444.994 199.698 443.426 71C494.647 169.294 509.521 223.956 484.426 324.5Z" fill="#9F2B2C" stroke="#9F2B2C"/>
<path d="M421.875 283.743C395.883 345.602 359.807 375.348 273.12 423.278C272.574 395.004 208.932 411.5 208.932 411.5C208.932 411.5 281.851 313.213 253.026 273.621C339.084 215.109 358.695 160.183 378.444 50.4473C419.125 128.576 429.926 178.938 421.875 283.743Z" fill="#E0A03F" stroke="#E0A03F"/>
<path d="M395.793 242.041C378.299 306.505 279.071 423 279.071 423C279.071 423 267.9 386.918 227.571 423L201.516 267.135C271.233 183.624 315.71 138.517 269.82 18.2687C351.819 92.8445 384.644 139.014 395.793 242.041Z" fill="#9F2B2C" stroke="#9F2B2C"/>
</svg>
