<svg width="943" height="687" viewBox="0 0 943 687" fill="none" xmlns="http://www.w3.org/2000/svg">
<path d="M747.432 3.06934C682.393 116.106 627.499 171.347 513.174 262.652L465.978 381.795L574.76 484.822C586.785 434.714 597.513 410.008 623.108 371.435C690.336 367.195 721.517 388.505 772.181 444.532C767.586 385.728 770.455 372.01 783.117 359.923C795.78 347.836 845.58 354.255 864.848 378.342C864.848 378.342 856.215 307.546 867.726 294.884C875.052 286.826 898.992 284.829 932.19 315.604C909.022 244.367 926.434 86.5272 926.434 86.5272C926.434 86.5272 739.959 60.4145 747.432 3.06934Z" fill="#9F2B2C" stroke="#9F2B2C" stroke-width="10"/>
<path d="M649.009 137.177L522.383 242.507L503.39 294.884L584.545 499.212C590.891 475.474 583.89 435.34 605.841 399.638C577.293 315.749 596.212 296.754 681.241 213.153C657.991 197.15 648.914 183.112 649.009 137.177Z" fill="#431616" stroke="#431616" stroke-width="10"/>
<path d="M195.46 2.49365C260.498 115.531 315.393 170.771 429.717 262.076L476.914 381.219L368.131 484.247C356.106 434.138 345.379 409.432 319.783 370.859C252.556 366.619 221.374 387.93 170.71 443.957C175.306 385.153 172.437 371.435 159.774 359.348C147.112 347.261 97.3117 353.68 78.0432 377.766C78.0432 377.766 86.6768 306.971 75.1654 294.308C67.8399 286.25 43.8993 284.253 10.7014 315.029C33.8692 243.792 16.4571 85.9515 16.4571 85.9515C16.4571 85.9515 202.932 59.8388 195.46 2.49365Z" fill="#9F2B2C" stroke="#9F2B2C" stroke-width="10"/>
<path d="M293.882 136.602L420.508 241.931L439.502 294.308L358.346 498.636C352.001 474.899 359.002 434.765 337.05 399.062C365.599 315.174 346.68 296.178 261.65 212.577C284.9 196.574 293.977 182.536 293.882 136.602Z" fill="#431616" stroke="#431616" stroke-width="10"/>
<path d="M606.719 44.4937C500.896 85.2348 440.221 88.2302 328.718 44.4937C337.808 122.195 328.778 159.296 286.701 214.287C343.312 235.966 369.62 253.881 397.786 305.803C391.696 260.625 395.163 240.926 411.6 214.287C455.32 251.903 480.734 250.355 527.29 214.287C555.325 231.232 560.665 251.738 553.766 305.803C575.512 256.502 589.553 230.715 644.131 214.287C602.107 151.712 599.929 113.716 606.719 44.4937Z" fill="#9F2B2C" stroke="#9F2B2C" stroke-width="10"/>
<path d="M577.94 130.829L514.627 175.148H574.486L577.94 130.829Z" fill="#431616" stroke="#431616" stroke-width="10"/>
<path d="M364.979 130.829L428.292 175.148H368.433L364.979 130.829Z" fill="#431616" stroke="#431616" stroke-width="10"/>
<path d="M337.05 558.14C398.937 423.435 421.707 347.351 437.775 210.494H503.201C527.954 350.283 548.506 426.528 598.935 558.14C656.841 621.831 702.762 618.886 788.873 601.57C775.766 626.602 776.811 638.592 788.873 657.494C690.652 679.736 635.398 687.603 535.046 657.494C540.066 615.725 542.695 592.342 506.843 558.14C484.998 535.982 468.301 542.775 437.775 558.14C401.761 596.178 394.326 617.898 408.421 657.494C316.444 691.767 268.994 687.557 189.128 657.494C207.355 637.666 207.787 625.47 189.128 601.57C260.047 624.686 292.619 615.74 337.05 558.14Z" fill="#9F2B2C" stroke="#9F2B2C" stroke-width="10"/>
<path d="M429.493 254.001L405.845 224.072H429.493H498.886H518.657L498.886 254.001H429.493Z" fill="#C88D35" stroke="#C88D35" stroke-width="10"/>
<path d="M413.903 187.811L378.793 224.647H413.903H516.93H546.284L516.93 187.811H413.903Z" fill="#E0A03F" stroke="#E0A03F" stroke-width="10"/>
</svg>
