<svg width="777" height="777" viewBox="0 0 777 777" fill="none" xmlns="http://www.w3.org/2000/svg">
<g clip-path="url(#clip0_466_190)">
<rect width="777" height="777" fill="#9F2B2C"/>
<path d="M413.56 861.629L518 938.794L413.56 947.562L344.225 861.629L316.14 947.562L463.586 1094L280.157 1017.71L209.945 887.058L135.344 990.529L-20 1035.25L111.648 947.562L192.392 823.923L172.206 676.609L120.424 579.276L183.615 497.727L154.653 586.291L192.392 662.579L226.62 545.955L266.992 432.839L172.206 295.17L246.806 112.78V40L280.157 101.381L219.599 295.17L357.39 394.256L403.028 202.221L380.209 58.4143L463.586 209.236L357.39 615.228L413.56 861.629Z" fill="#E0A03F"/>
<path d="M705.086 430.539L574.018 610.201L552.264 579.23L650.707 401.464L712.548 371.826L705.086 430.539Z" fill="#CCC28C" stroke="#CCC28C" stroke-width="11.5381"/>
<path d="M652.221 404.355L715.266 370.862L562.177 591.997L553.812 574.274L652.221 404.355Z" fill="#FEF3B1"/>
<path d="M477.652 704.001L542.204 604.212L515.599 582.525L518.911 552.493L617.73 638.592L589.901 640.254L563.226 621.566L505.332 701.429L477.652 704.001Z" fill="#C88D35"/>
<path d="M542.204 604.212L477.652 704.001L505.332 701.429L563.226 621.566M542.204 604.212L563.226 621.566M542.204 604.212L515.599 582.525L518.911 552.493L617.73 638.592L589.901 640.254L563.226 621.566" stroke="#C88D35" stroke-width="11.5381"/>
<path d="M509.864 585.326L512.304 560.1L514.505 541.446L625.264 637.694L512.304 560.1L589.129 646.956L509.864 585.326Z" fill="#E0A03F"/>
<path d="M466.824 711.498L520.847 625.626L533.135 648.201L495.216 707.674L466.824 711.498Z" fill="#E0A03F"/>
</g>
<defs>
<clipPath id="clip0_466_190">
<rect width="777" height="777" fill="white"/>
</clipPath>
</defs>
</svg>
