<svg width="756" height="982" viewBox="0 0 756 982" fill="none" xmlns="http://www.w3.org/2000/svg">
<rect width="756" height="982" fill="#355D67"/>
<path d="M302.749 189.492H254.016C272.93 150.242 276.093 127.31 279.75 86.4683C284.664 134.929 288.199 158.884 302.749 189.492Z" fill="#CCC28C" stroke="#CCC28C" stroke-width="8.69444"/>
<path d="M230.609 87.3857C231.32 71.7226 259.714 41.3191 269.929 41.584C280.003 48.5487 285.653 47.4914 295.728 41.584C314.221 55.4334 322.043 64.3282 319.791 87.3857C296.649 92.0923 297.023 98.3078 304.534 111.228C284.685 124.102 273.932 129.395 260.13 111.228C261.434 94.9225 253.344 90.5887 230.609 87.3857Z" fill="#C88D35" stroke="#C88D35" stroke-width="8.69444"/>
<path d="M289.495 142.469C286.502 143.11 283.81 142.469 280.304 142.469M261.494 166.622C264.059 167.69 280.304 166.622 280.304 166.622M299.327 176.24C296.334 177.522 283.51 176.24 283.51 176.24M272.182 129.43L278.166 130.499M253.586 184.362C255.723 185.645 271.327 185.645 271.327 185.645M268.975 154.7C271.832 154.7 289.922 154.7 289.922 154.7" stroke="#741D1E" stroke-width="8.69444"/>
<path d="M275.522 197.373H226.789C245.703 158.123 248.866 135.191 252.523 94.3494C257.438 142.81 260.973 166.765 275.522 197.373Z" fill="#FEF3B1" stroke="#FEF3B1" stroke-width="8.69444"/>
<path d="M203.383 95.2668C204.093 79.6037 232.487 49.2002 242.702 49.4651C252.777 56.4298 258.426 55.3725 268.501 49.4651C286.994 63.3145 294.816 72.2093 292.564 95.2668C269.422 99.9734 269.797 106.189 277.308 119.109C257.458 131.983 246.705 137.276 232.903 119.109C234.208 102.804 226.117 98.4698 203.383 95.2668Z" fill="#E0A03F" stroke="#E0A03F" stroke-width="8.69444"/>
<path d="M262.27 150.35C259.278 150.991 256.585 150.35 253.079 150.35M234.27 174.502C236.835 175.571 253.079 174.502 253.079 174.502M272.102 184.121C269.11 185.403 256.285 184.121 256.285 184.121M244.957 137.311L250.942 138.38M226.361 192.243C228.499 193.526 244.102 193.526 244.102 193.526M241.751 162.58C244.607 162.58 262.698 162.58 262.698 162.58" stroke="#9F2B2C" stroke-width="8.69444"/>
<path d="M360.782 197.373H312.049C330.963 158.123 334.126 135.191 337.783 94.3494C342.698 142.81 346.232 166.765 360.782 197.373Z" fill="#CCC28C" stroke="#CCC28C" stroke-width="8.69444"/>
<path d="M288.643 95.2668C289.353 79.6037 317.747 49.2002 327.962 49.4651C338.037 56.4298 343.686 55.3725 353.761 49.4651C372.254 63.3145 380.076 72.2093 377.824 95.2668C354.682 99.9734 355.057 106.189 362.568 119.109C342.718 131.983 331.965 137.276 318.163 119.109C319.468 102.804 311.377 98.4698 288.643 95.2668Z" fill="#C88D35" stroke="#C88D35" stroke-width="8.69444"/>
<path d="M347.53 150.35C344.537 150.991 341.845 150.35 338.339 150.35M319.53 174.502C322.094 175.571 338.339 174.502 338.339 174.502M357.362 184.121C354.37 185.403 341.545 184.121 341.545 184.121M330.217 137.311L336.201 138.38M311.621 192.243C313.759 193.526 329.362 193.526 329.362 193.526M327.011 162.58C329.867 162.58 347.957 162.58 347.957 162.58" stroke="#741D1E" stroke-width="8.69444"/>
<path d="M333.556 205.254H284.822C303.736 166.004 306.899 143.072 310.556 102.23C315.471 150.691 319.006 174.647 333.556 205.254Z" fill="#FEF3B1" stroke="#FEF3B1" stroke-width="8.69444"/>
<path d="M261.418 103.148C262.129 87.4848 290.522 57.0813 300.737 57.3462C310.812 64.3109 316.462 63.2536 326.536 57.3462C345.03 71.1956 352.851 80.0904 350.599 103.148C327.457 107.855 327.832 114.07 335.343 126.99C315.493 139.865 304.74 145.157 290.938 126.99C292.243 110.685 284.152 106.351 261.418 103.148Z" fill="#E0A03F" stroke="#E0A03F" stroke-width="8.69444"/>
<path d="M320.305 158.231C317.313 158.872 314.62 158.231 311.114 158.231M292.305 182.384C294.87 183.453 311.114 182.384 311.114 182.384M330.137 192.002C327.145 193.285 314.32 192.002 314.32 192.002M302.992 145.193L308.977 146.261M284.396 200.124C286.534 201.407 302.137 201.407 302.137 201.407M299.786 170.462C302.642 170.462 320.733 170.462 320.733 170.462" stroke="#9F2B2C" stroke-width="8.69444"/>
<path d="M193.845 197.373H145.111C164.025 158.123 167.188 135.191 170.845 94.3494C175.76 142.81 179.295 166.765 193.845 197.373Z" fill="#CCC28C" stroke="#CCC28C" stroke-width="8.69444"/>
<path d="M121.707 95.2668C122.418 79.6037 150.811 49.2002 161.026 49.4651C171.101 56.4298 176.751 55.3725 186.825 49.4651C205.319 63.3145 213.14 72.2093 210.888 95.2668C187.746 99.9734 188.121 106.189 195.632 119.109C175.782 131.983 165.029 137.276 151.227 119.109C152.532 102.804 144.441 98.4698 121.707 95.2668Z" fill="#C88D35" stroke="#C88D35" stroke-width="8.69444"/>
<path d="M180.592 150.35C177.6 150.991 174.907 150.35 171.401 150.35M152.592 174.502C155.157 175.571 171.401 174.502 171.401 174.502M190.424 184.121C187.432 185.403 174.608 184.121 174.608 184.121M163.279 137.311L169.264 138.38M144.684 192.243C146.821 193.526 162.424 193.526 162.424 193.526M160.073 162.58C162.929 162.58 181.02 162.58 181.02 162.58" stroke="#741D1E" stroke-width="8.69444"/>
<path d="M166.62 205.254H117.887C136.801 166.004 139.964 143.072 143.621 102.23C148.536 150.691 152.07 174.647 166.62 205.254Z" fill="#FEF3B1" stroke="#FEF3B1" stroke-width="8.69444"/>
<path d="M94.4824 103.148C95.1931 87.4848 123.587 57.0813 133.802 57.3462C143.877 64.3109 149.526 63.2536 159.601 57.3462C178.094 71.1956 185.916 80.0904 183.664 103.148C160.522 107.855 160.897 114.07 168.407 126.99C148.558 139.865 137.805 145.157 124.003 126.99C125.308 110.685 117.217 106.351 94.4824 103.148Z" fill="#E0A03F" stroke="#E0A03F" stroke-width="8.69444"/>
<path d="M153.368 158.231C150.375 158.872 147.683 158.231 144.177 158.231M125.367 182.384C127.932 183.453 144.177 182.384 144.177 182.384M163.2 192.002C160.207 193.285 147.383 192.002 147.383 192.002M136.055 145.193L142.039 146.261M117.459 200.124C119.596 201.407 135.2 201.407 135.2 201.407M132.848 170.462C135.705 170.462 153.795 170.462 153.795 170.462" stroke="#9F2B2C" stroke-width="8.69444"/>
<path d="M251.88 205.254H203.146C222.06 166.004 225.224 143.072 228.881 102.23C233.795 150.691 237.33 174.647 251.88 205.254Z" fill="#CCC28C" stroke="#CCC28C" stroke-width="8.69444"/>
<path d="M179.74 103.148C180.451 87.4848 208.845 57.0813 219.059 57.3462C229.134 64.3109 234.784 63.2536 244.859 57.3462C263.352 71.1956 271.174 80.0904 268.921 103.148C245.78 107.855 246.154 114.07 253.665 126.99C233.815 139.865 223.062 145.157 209.261 126.99C210.565 110.685 202.475 106.351 179.74 103.148Z" fill="#C88D35" stroke="#C88D35" stroke-width="8.69444"/>
<path d="M238.626 158.231C235.633 158.872 232.94 158.231 229.435 158.231M210.625 182.384C213.19 183.453 229.435 182.384 229.435 182.384M248.458 192.002C245.465 193.285 232.641 192.002 232.641 192.002M221.312 145.193L227.297 146.261M202.717 200.124C204.854 201.407 220.457 201.407 220.457 201.407M218.106 170.462C220.963 170.462 239.053 170.462 239.053 170.462" stroke="#741D1E" stroke-width="8.69444"/>
<path d="M224.653 213.135H175.92C194.834 173.885 197.997 150.953 201.654 110.112C206.569 158.572 210.103 182.528 224.653 213.135Z" fill="#FEF3B1" stroke="#FEF3B1" stroke-width="8.69444"/>
<path d="M152.514 111.029C153.224 95.3659 181.618 64.9624 191.833 65.2273C201.908 72.192 207.557 71.1347 217.632 65.2273C236.125 79.0767 243.947 87.9715 241.695 111.029C218.553 115.736 218.928 121.951 226.439 134.871C206.589 147.746 195.836 153.038 182.034 134.871C183.339 118.566 175.248 114.232 152.514 111.029Z" fill="#E0A03F" stroke="#E0A03F" stroke-width="8.69444"/>
<path d="M211.401 166.112C208.409 166.753 205.716 166.112 202.21 166.112M183.401 190.265C185.966 191.333 202.21 190.265 202.21 190.265M221.233 199.883C218.241 201.166 205.416 199.883 205.416 199.883M194.088 153.073L200.073 154.142M175.492 208.005C177.63 209.288 193.233 209.288 193.233 209.288M190.882 178.343C193.738 178.343 211.828 178.343 211.828 178.343" stroke="#9F2B2C" stroke-width="8.69444"/>
<path d="M129.362 253.974H80.6289C99.5429 214.723 102.706 191.791 106.363 150.95C111.278 199.41 114.812 223.366 129.362 253.974Z" fill="#CCC28C" stroke="#CCC28C" stroke-width="8.69444"/>
<path d="M57.2266 151.868C57.9372 136.205 86.3309 105.801 96.5457 106.066C106.621 113.031 112.27 111.973 122.345 106.066C140.838 119.915 148.66 128.81 146.408 151.868C123.266 156.574 123.641 162.79 131.152 175.71C111.302 188.584 100.549 193.877 86.7469 175.71C88.0517 159.404 79.9609 155.071 57.2266 151.868Z" fill="#C88D35" stroke="#C88D35" stroke-width="8.69444"/>
<path d="M116.112 206.95C113.119 207.592 110.427 206.95 106.921 206.95M88.1116 231.103C90.6765 232.172 106.921 231.103 106.921 231.103M125.944 240.722C122.952 242.004 110.127 240.722 110.127 240.722M98.7987 193.912L104.783 194.981M80.2031 248.844C82.3405 250.126 97.9437 250.126 97.9437 250.126M95.5926 219.181C98.4489 219.181 116.539 219.181 116.539 219.181" stroke="#741D1E" stroke-width="8.69444"/>
<path d="M102.138 261.855H53.4043C72.3183 222.605 75.4813 199.673 79.1384 158.831C84.0531 207.292 87.5878 231.247 102.138 261.855Z" fill="#FEF3B1" stroke="#FEF3B1" stroke-width="8.69444"/>
<path d="M30 159.749C30.7107 144.086 59.1044 113.682 69.3191 113.947C79.3941 120.912 85.0436 119.854 95.1184 113.947C113.612 127.796 121.433 136.691 119.181 159.749C96.0393 164.455 96.4141 170.671 103.925 183.591C84.0752 196.465 73.3222 201.758 59.5204 183.591C60.8251 167.286 52.7343 162.952 30 159.749Z" fill="#E0A03F" stroke="#E0A03F" stroke-width="8.69444"/>
<path d="M88.8853 214.831C85.8929 215.472 83.2002 214.831 79.6944 214.831M60.885 238.984C63.4499 240.053 79.6944 238.984 79.6944 238.984M98.7174 248.603C95.725 249.885 82.9005 248.603 82.9005 248.603M71.5721 201.793L77.5569 202.862M52.9766 256.725C55.114 258.007 70.7172 258.007 70.7172 258.007M68.366 227.062C71.2224 227.062 89.3128 227.062 89.3128 227.062" stroke="#9F2B2C" stroke-width="8.69444"/>
<path d="M187.397 261.855H138.664C157.578 222.605 160.741 199.673 164.398 158.831C169.313 207.292 172.848 231.247 187.397 261.855Z" fill="#CCC28C" stroke="#CCC28C" stroke-width="8.69444"/>
<path d="M115.26 159.749C115.97 144.086 144.364 113.682 154.579 113.947C164.654 120.912 170.303 119.854 180.378 113.947C198.871 127.796 206.693 136.691 204.441 159.749C181.299 164.455 181.674 170.671 189.185 183.591C169.335 196.465 158.582 201.758 144.78 183.591C146.085 167.286 137.994 162.952 115.26 159.749Z" fill="#C88D35" stroke="#C88D35" stroke-width="8.69444"/>
<path d="M174.145 214.831C171.153 215.472 168.46 214.831 164.954 214.831M146.145 238.984C148.71 240.053 164.954 238.984 164.954 238.984M183.977 248.603C180.985 249.885 168.16 248.603 168.16 248.603M156.832 201.793L162.817 202.862M138.236 256.725C140.374 258.007 155.977 258.007 155.977 258.007M153.626 227.062C156.482 227.062 174.573 227.062 174.573 227.062" stroke="#741D1E" stroke-width="8.69444"/>
<path d="M160.173 269.736H111.439C130.353 230.485 133.517 207.553 137.174 166.712C142.088 215.173 145.623 239.128 160.173 269.736Z" fill="#FEF3B1" stroke="#FEF3B1" stroke-width="8.69444"/>
<path d="M88.0332 167.63C88.7439 151.967 117.138 121.563 127.352 121.828C137.427 128.793 143.077 127.735 153.152 121.828C171.645 135.677 179.467 144.572 177.214 167.63C154.072 172.336 154.447 178.552 161.958 191.472C142.108 204.346 131.355 209.639 117.554 191.472C118.858 175.166 110.767 170.833 88.0332 167.63Z" fill="#E0A03F" stroke="#E0A03F" stroke-width="8.69444"/>
<path d="M146.92 222.713C143.928 223.354 141.235 222.713 137.73 222.713M118.92 246.865C121.485 247.934 137.73 246.865 137.73 246.865M156.753 256.484C153.76 257.766 140.936 256.484 140.936 256.484M129.607 209.674L135.592 210.743M111.012 264.606C113.149 265.889 128.752 265.889 128.752 265.889M126.401 234.943C129.258 234.943 147.348 234.943 147.348 234.943" stroke="#9F2B2C" stroke-width="8.69444"/>
<path d="M453.653 185.91H502.387C483.473 146.659 480.31 123.728 476.653 82.886C471.738 131.347 468.203 155.302 453.653 185.91Z" fill="#CCC28C" stroke="#CCC28C" stroke-width="8.69444"/>
<path d="M525.791 83.8035C525.08 68.1404 496.687 37.7368 486.472 38.0017C476.397 44.9664 470.747 43.9091 460.673 38.0017C442.179 51.8511 434.358 60.7459 436.61 83.8035C459.752 88.51 459.377 94.7255 451.866 107.645C471.716 120.52 482.469 125.813 496.271 107.645C494.966 91.3402 503.057 87.0064 525.791 83.8035Z" fill="#C88D35" stroke="#C88D35" stroke-width="8.69444"/>
<path d="M466.906 138.886C469.898 139.528 472.591 138.886 476.097 138.886M494.906 163.039C492.341 164.108 476.097 163.039 476.097 163.039M457.074 172.658C460.066 173.94 472.891 172.658 472.891 172.658M484.219 125.848L478.234 126.917M502.814 180.78C500.677 182.062 485.074 182.062 485.074 182.062M487.425 151.117C484.569 151.117 466.478 151.117 466.478 151.117" stroke="#741D1E" stroke-width="8.69444"/>
<path d="M480.88 193.791H529.613C510.699 154.54 507.536 131.608 503.879 90.7668C498.964 139.228 495.43 163.183 480.88 193.791Z" fill="#FEF3B1" stroke="#FEF3B1" stroke-width="8.69444"/>
<path d="M553.018 91.6843C552.307 76.0212 523.913 45.6177 513.698 45.8826C503.623 52.8473 497.974 51.79 487.899 45.8826C469.406 59.7319 461.584 68.6268 463.836 91.6843C486.978 96.3909 486.603 102.606 479.093 115.526C498.942 128.401 509.695 133.694 523.497 115.526C522.192 99.2211 530.283 94.8873 553.018 91.6843Z" fill="#E0A03F" stroke="#E0A03F" stroke-width="8.69444"/>
<path d="M494.132 146.768C497.125 147.409 499.817 146.768 503.323 146.768M522.133 170.92C519.568 171.989 503.323 170.92 503.323 170.92M484.3 180.539C487.293 181.821 500.117 180.539 500.117 180.539M511.445 133.729L505.461 134.798M530.041 188.661C527.904 189.943 512.3 189.943 512.3 189.943M514.652 158.998C511.795 158.998 493.705 158.998 493.705 158.998" stroke="#9F2B2C" stroke-width="8.69444"/>
<path d="M395.618 193.791H444.352C425.438 154.54 422.275 131.608 418.617 90.7668C413.703 139.228 410.168 163.183 395.618 193.791Z" fill="#CCC28C" stroke="#CCC28C" stroke-width="8.69444"/>
<path d="M467.762 91.6843C467.051 76.0212 438.657 45.6177 428.443 45.8826C418.368 52.8473 412.718 51.79 402.643 45.8826C384.15 59.7319 376.328 68.6268 378.58 91.6843C401.722 96.3909 401.348 102.606 393.837 115.526C413.687 128.401 424.439 133.694 438.241 115.526C436.937 99.2211 445.027 94.8873 467.762 91.6843Z" fill="#C88D35" stroke="#C88D35" stroke-width="8.69444"/>
<path d="M408.874 146.768C411.867 147.409 414.56 146.768 418.065 146.768M436.875 170.92C434.31 171.989 418.065 170.92 418.065 170.92M399.042 180.539C402.035 181.821 414.859 180.539 414.859 180.539M426.188 133.729L420.203 134.798M444.783 188.661C442.646 189.943 427.043 189.943 427.043 189.943M429.394 158.998C426.537 158.998 408.447 158.998 408.447 158.998" stroke="#741D1E" stroke-width="8.69444"/>
<path d="M422.845 201.672H471.578C452.664 162.422 449.501 139.49 445.844 98.6482C440.929 147.109 437.395 171.064 422.845 201.672Z" fill="#FEF3B1" stroke="#FEF3B1" stroke-width="8.69444"/>
<path d="M494.984 99.5657C494.274 83.9026 465.88 53.499 455.665 53.7639C445.59 60.7286 439.941 59.6713 429.866 53.7639C411.373 67.6133 403.551 76.5081 405.803 99.5657C428.945 104.272 428.57 110.488 421.059 123.408C440.909 136.282 451.662 141.575 465.464 123.408C464.159 107.102 472.25 102.769 494.984 99.5657Z" fill="#E0A03F" stroke="#E0A03F" stroke-width="8.69444"/>
<path d="M436.097 154.648C439.09 155.29 441.782 154.648 445.288 154.648M464.097 178.801C461.532 179.87 445.288 178.801 445.288 178.801M426.265 188.42C429.257 189.702 442.082 188.42 442.082 188.42M453.41 141.61L447.425 142.679M472.006 196.542C469.868 197.824 454.265 197.824 454.265 197.824M456.616 166.879C453.76 166.879 435.67 166.879 435.67 166.879" stroke="#9F2B2C" stroke-width="8.69444"/>
<path d="M562.558 193.791H611.291C592.377 154.54 589.214 131.608 585.557 90.7668C580.642 139.228 577.108 163.183 562.558 193.791Z" fill="#CCC28C" stroke="#CCC28C" stroke-width="8.69444"/>
<path d="M634.695 91.6843C633.985 76.0212 605.591 45.6177 595.376 45.8826C585.301 52.8473 579.652 51.79 569.577 45.8826C551.084 59.7319 543.262 68.6268 545.514 91.6843C568.656 96.3909 568.281 102.606 560.77 115.526C580.62 128.401 591.373 133.694 605.175 115.526C603.87 99.2211 611.961 94.8873 634.695 91.6843Z" fill="#C88D35" stroke="#C88D35" stroke-width="8.69444"/>
<path d="M575.81 146.768C578.802 147.409 581.495 146.768 585.001 146.768M603.81 170.92C601.245 171.989 585.001 170.92 585.001 170.92M565.978 180.539C568.97 181.821 581.795 180.539 581.795 180.539M593.123 133.729L587.138 134.798M611.719 188.661C609.581 189.943 593.978 189.943 593.978 189.943M596.329 158.998C593.473 158.998 575.383 158.998 575.383 158.998" stroke="#741D1E" stroke-width="8.69444"/>
<path d="M589.782 201.672H638.516C619.602 162.422 616.439 139.49 612.781 98.6482C607.867 147.109 604.332 171.064 589.782 201.672Z" fill="#FEF3B1" stroke="#FEF3B1" stroke-width="8.69444"/>
<path d="M661.92 99.5657C661.209 83.9026 632.816 53.499 622.601 53.7639C612.526 60.7286 606.876 59.6713 596.801 53.7639C578.308 67.6133 570.487 76.5081 572.739 99.5657C595.881 104.272 595.506 110.488 587.995 123.408C607.845 136.282 618.598 141.575 632.4 123.408C631.095 107.102 639.186 102.769 661.92 99.5657Z" fill="#E0A03F" stroke="#E0A03F" stroke-width="8.69444"/>
<path d="M603.035 154.648C606.027 155.29 608.72 154.648 612.226 154.648M631.035 178.801C628.47 179.87 612.226 178.801 612.226 178.801M593.203 188.42C596.195 189.702 609.019 188.42 609.019 188.42M620.348 141.61L614.363 142.679M638.943 196.542C636.806 197.824 621.203 197.824 621.203 197.824M623.554 166.879C620.698 166.879 602.607 166.879 602.607 166.879" stroke="#9F2B2C" stroke-width="8.69444"/>
<path d="M504.523 201.672H553.256C534.342 162.422 531.179 139.49 527.522 98.6482C522.607 147.109 519.072 171.064 504.523 201.672Z" fill="#CCC28C" stroke="#CCC28C" stroke-width="8.69444"/>
<path d="M576.66 99.5657C575.949 83.9026 547.556 53.499 537.341 53.7639C527.266 60.7286 521.617 59.6713 511.542 53.7639C493.049 67.6133 485.227 76.5081 487.479 99.5657C510.621 104.272 510.246 110.488 502.735 123.408C522.585 136.282 533.338 141.575 547.14 123.408C545.835 107.102 553.926 102.769 576.66 99.5657Z" fill="#C88D35" stroke="#C88D35" stroke-width="8.69444"/>
<path d="M517.775 154.648C520.767 155.29 523.46 154.648 526.966 154.648M545.775 178.801C543.21 179.87 526.966 178.801 526.966 178.801M507.943 188.42C510.935 189.702 523.76 188.42 523.76 188.42M535.088 141.61L529.103 142.679M553.684 196.542C551.546 197.824 535.943 197.824 535.943 197.824M538.294 166.879C535.438 166.879 517.347 166.879 517.347 166.879" stroke="#741D1E" stroke-width="8.69444"/>
<path d="M531.749 209.553H580.482C561.568 170.303 558.405 147.371 554.748 106.529C549.834 154.99 546.299 178.945 531.749 209.553Z" fill="#FEF3B1" stroke="#FEF3B1" stroke-width="8.69444"/>
<path d="M603.887 107.447C603.176 91.7837 574.782 61.3802 564.568 61.645C554.493 68.6097 548.843 67.5524 538.768 61.645C520.275 75.4944 512.453 84.3892 514.705 107.447C537.847 112.153 537.473 118.369 529.962 131.289C549.812 144.163 560.564 149.456 574.366 131.289C573.062 114.984 581.152 110.65 603.887 107.447Z" fill="#E0A03F" stroke="#E0A03F" stroke-width="8.69444"/>
<path d="M545.001 162.529C547.994 163.171 550.687 162.529 554.192 162.529M573.002 186.682C570.437 187.751 554.192 186.682 554.192 186.682M535.169 196.301C538.162 197.583 550.986 196.301 550.986 196.301M562.315 149.491L556.33 150.56M580.91 204.423C578.773 205.705 563.17 205.705 563.17 205.705M565.521 174.76C562.664 174.76 544.574 174.76 544.574 174.76" stroke="#9F2B2C" stroke-width="8.69444"/>
<path d="M627.04 250.391H675.773C656.859 211.141 653.696 188.209 650.039 147.368C645.125 195.828 641.59 219.784 627.04 250.391Z" fill="#CCC28C" stroke="#CCC28C" stroke-width="8.69444"/>
<path d="M699.176 148.285C698.465 132.622 670.071 102.218 659.857 102.483C649.782 109.448 644.132 108.391 634.057 102.483C615.564 116.333 607.742 125.227 609.995 148.285C633.136 152.991 632.762 159.207 625.251 172.127C645.101 185.002 655.854 190.294 669.655 172.127C668.351 155.822 676.441 151.488 699.176 148.285Z" fill="#C88D35" stroke="#C88D35" stroke-width="8.69444"/>
<path d="M640.291 203.368C643.283 204.009 645.976 203.368 649.481 203.368M668.291 227.521C665.726 228.59 649.481 227.521 649.481 227.521M630.458 237.139C633.451 238.422 646.275 237.139 646.275 237.139M657.604 190.33L651.619 191.399M676.199 245.262C674.062 246.544 658.459 246.544 658.459 246.544M660.81 215.599C657.953 215.599 639.863 215.599 639.863 215.599" stroke="#741D1E" stroke-width="8.69444"/>
<path d="M654.265 258.272H702.998C684.084 219.022 680.921 196.09 677.264 155.249C672.349 203.709 668.815 227.665 654.265 258.272Z" fill="#FEF3B1" stroke="#FEF3B1" stroke-width="8.69444"/>
<path d="M726.402 156.166C725.692 140.503 697.298 110.1 687.083 110.365C677.008 117.329 671.359 116.272 661.284 110.365C642.791 124.214 634.969 133.109 637.221 156.166C660.363 160.873 659.988 167.088 652.477 180.008C672.327 192.883 683.08 198.176 696.882 180.008C695.577 163.703 703.668 159.369 726.402 156.166Z" fill="#E0A03F" stroke="#E0A03F" stroke-width="8.69444"/>
<path d="M667.517 211.249C670.509 211.89 673.202 211.249 676.708 211.249M695.517 235.402C692.952 236.471 676.708 235.402 676.708 235.402M657.685 245.021C660.677 246.303 673.502 245.021 673.502 245.021M684.83 198.211L678.845 199.28M703.426 253.143C701.288 254.425 685.685 254.425 685.685 254.425M688.036 223.48C685.18 223.48 667.09 223.48 667.09 223.48" stroke="#9F2B2C" stroke-width="8.69444"/>
<path d="M569.003 258.272H617.736C598.822 219.022 595.659 196.09 592.002 155.249C587.088 203.709 583.553 227.665 569.003 258.272Z" fill="#CCC28C" stroke="#CCC28C" stroke-width="8.69444"/>
<path d="M641.143 156.166C640.432 140.503 612.038 110.1 601.823 110.365C591.748 117.329 586.099 116.272 576.024 110.365C557.531 124.214 549.709 133.109 551.961 156.166C575.103 160.873 574.728 167.088 567.218 180.008C587.067 192.883 597.82 198.176 611.622 180.008C610.317 163.703 618.408 159.369 641.143 156.166Z" fill="#C88D35" stroke="#C88D35" stroke-width="8.69444"/>
<path d="M582.255 211.249C585.248 211.89 587.94 211.249 591.446 211.249M610.256 235.402C607.691 236.471 591.446 235.402 591.446 235.402M572.423 245.021C575.416 246.303 588.24 245.021 588.24 245.021M599.568 198.211L593.584 199.28M618.164 253.143C616.027 254.425 600.423 254.425 600.423 254.425M602.775 223.48C599.918 223.48 581.828 223.48 581.828 223.48" stroke="#741D1E" stroke-width="8.69444"/>
<path d="M596.23 266.153H644.963C626.049 226.903 622.886 203.971 619.229 163.13C614.314 211.59 610.779 235.546 596.23 266.153Z" fill="#FEF3B1" stroke="#FEF3B1" stroke-width="8.69444"/>
<path d="M668.369 164.047C667.658 148.384 639.265 117.981 629.05 118.246C618.975 125.21 613.326 124.153 603.251 118.246C584.758 132.095 576.936 140.99 579.188 164.047C602.33 168.754 601.955 174.969 594.444 187.889C614.294 200.764 625.047 206.057 638.849 187.889C637.544 171.584 645.635 167.25 668.369 164.047Z" fill="#E0A03F" stroke="#E0A03F" stroke-width="8.69444"/>
<path d="M609.482 219.13C612.474 219.772 615.167 219.13 618.673 219.13M637.482 243.283C634.917 244.352 618.673 243.283 618.673 243.283M599.65 252.902C602.642 254.184 615.467 252.902 615.467 252.902M626.795 206.092L620.81 207.161M645.391 261.024C643.253 262.306 627.65 262.306 627.65 262.306M630.001 231.361C627.145 231.361 609.054 231.361 609.054 231.361" stroke="#9F2B2C" stroke-width="8.69444"/>
</svg>
