<svg width="223" height="427" viewBox="0 0 223 427" fill="none" xmlns="http://www.w3.org/2000/svg">
<path d="M36.5607 245.5V159.696L52.7201 136.478H60.8287L56.356 105.185L20.6033 89.6397L18.7853 49.4634L0 32.9083L26.2591 42.8009L29.087 79.1414L52.7201 85.1981L43.4284 56.3277L65.6476 32.9083C63.4931 41.1858 58.9415 57.7409 57.9719 57.7409C57.0024 57.7409 68.6102 74.4306 74.5353 82.7754L90.0888 57.7409L80.7971 36.3404L102.006 0L93.7246 36.3404L104.228 57.7409L91.7047 85.1981L120.792 75.9111L150.081 36.3404L125.639 89.6397L77.3632 105.185V136.478H85.2409L97.7645 159.696L166.24 96.9078L223 159.696V245.5H171.29V307.279L184.015 333.121L217.748 375.72L196.135 427L191.893 381.373L152.303 355.127L125.639 375.72L142.001 427L112.914 392.275L101.4 363.202L115.54 345.84L56.356 355.127V383.795L36.5607 355.127L80.7971 333.121L85.2409 307.279L89.5912 245.5H36.5607Z" fill="#E0A03F"/>
</svg>
