<svg width="774" height="420" viewBox="0 0 774 420" fill="none" xmlns="http://www.w3.org/2000/svg">
<path d="M594.926 277.5C556.258 331.965 525.522 352.141 454.926 369C431.85 344.531 390.736 333.554 340.432 353.5L403.926 234C498.182 179.682 555.494 152.698 553.926 24C605.147 122.294 620.021 176.956 594.926 277.5Z" fill="#9F2B2C" stroke="#9F2B2C"/>
<path d="M602.54 320.457C543.671 352.653 496.92 353.448 399.25 336.937C416.438 314.48 356.378 287.736 356.378 287.736C356.378 287.736 474.648 256.279 476.765 207.351C580.535 215.193 630.093 184.445 713.904 110.908C697.054 197.366 674.129 243.49 602.54 320.457Z" fill="#E0A03F" stroke="#E0A03F"/>
<path d="M579.668 399.86C513.422 408.406 367.794 361.399 367.794 361.399C367.794 361.399 396.84 337.253 348.057 313.831L482.037 230.033C585.891 262.423 644.598 286.218 738.08 197.749C700.622 302.067 670.557 350.08 579.668 399.86Z" fill="#9F2B2C" stroke="#9F2B2C"/>
<path d="M179.067 277.5C217.735 331.965 248.471 352.141 319.067 369C342.142 344.531 383.257 333.554 433.561 353.5L370.067 234C275.81 179.682 218.498 152.698 220.067 24C168.845 122.294 153.972 176.956 179.067 277.5Z" fill="#9F2B2C" stroke="#9F2B2C"/>
<path d="M171.452 320.457C230.321 352.653 277.072 353.448 374.742 336.937C357.554 314.48 417.615 287.736 417.615 287.736C417.615 287.736 299.344 256.279 297.227 207.351C193.458 215.193 143.899 184.445 60.0877 110.908C76.9377 197.366 99.8631 243.49 171.452 320.457Z" fill="#E0A03F" stroke="#E0A03F"/>
<path d="M194.324 399.86C260.57 408.406 406.198 361.399 406.198 361.399C406.198 361.399 377.152 337.253 425.935 313.831L291.955 230.033C188.101 262.423 129.394 286.218 35.9125 197.749C73.3702 302.067 103.435 350.08 194.324 399.86Z" fill="#9F2B2C" stroke="#9F2B2C"/>
</svg>
