<svg width="226" height="226" viewBox="0 0 226 226" fill="none" xmlns="http://www.w3.org/2000/svg">
<path d="M61.9199 12.2162C63.3879 12.2162 67.3724 17.0396 67.3724 18.5076H61.0811V13.0551C61.0811 12.6357 61.5005 12.2162 61.9199 12.2162Z" fill="#355D67"/>
<path d="M74.1367 12.2162C75.6047 12.2162 79.5892 17.0396 79.5892 18.5076H73.2979V13.0551C73.2979 12.6357 73.7173 12.2162 74.1367 12.2162Z" fill="#355D67"/>
<path d="M91.805 18.5076H85.5137V14.3134C85.5137 13.16 86.4574 12.2162 87.6108 12.2162H91.805V18.5076Z" fill="#355D67"/>
<path d="M97.9124 13.0551C97.9124 14.5231 93.0891 18.5076 91.6211 18.5076V12.2162H97.0736C97.493 12.2162 97.9124 12.6357 97.9124 13.0551Z" fill="#355D67"/>
<path d="M110.784 12.2162C112.252 12.2162 116.237 17.0396 116.237 18.5076H109.945V13.0551C109.945 12.6357 110.365 12.2162 110.784 12.2162Z" fill="#355D67"/>
<path d="M134.379 17.6688C134.379 16.2008 139.202 12.2162 140.67 12.2162V18.5076H135.218C134.798 18.5076 134.379 18.0882 134.379 17.6688Z" fill="#355D67"/>
<path d="M140.486 18.5076V12.2162H144.681C145.834 12.2162 146.778 13.16 146.778 14.3134V18.5076H140.486Z" fill="#355D67"/>
<path d="M152.702 17.6688C152.702 16.2008 157.526 12.2162 158.993 12.2162V18.5076H153.541C153.122 18.5076 152.702 18.0882 152.702 17.6688Z" fill="#355D67"/>
<path d="M158.812 18.5076V12.2162H163.006C164.159 12.2162 165.103 13.16 165.103 14.3134V18.5076H158.812Z" fill="#355D67"/>
<path d="M67.3724 18.3243H61.0811V24.6157H67.3724V18.3243Z" fill="#355D67"/>
<path d="M73.4798 18.3243H67.1885V24.6157H73.4798V18.3243Z" fill="#355D67"/>
<path d="M79.5892 18.3243H73.2979V24.6156H79.5892V18.3243Z" fill="#355D67"/>
<path d="M91.805 18.3243H85.5137V24.6157H91.805V18.3243Z" fill="#355D67"/>
<path d="M110.129 24.6156H103.838V20.4214C103.838 19.268 104.782 18.3243 105.935 18.3243H110.129V24.6156Z" fill="#355D67"/>
<path d="M116.237 18.3243H109.945V24.6157H116.237V18.3243Z" fill="#355D67"/>
<path d="M122.346 18.3243H116.055V24.6157H122.346V18.3243Z" fill="#355D67"/>
<path d="M128.453 18.3243H122.162V24.6156H128.453V18.3243Z" fill="#355D67"/>
<path d="M134.562 19.1632C134.562 20.6312 129.738 24.6157 128.271 24.6157V18.3243H133.723C134.142 18.3243 134.562 18.7438 134.562 19.1632Z" fill="#355D67"/>
<path d="M146.778 18.3243H140.486V24.6157H146.778V18.3243Z" fill="#355D67"/>
<path d="M146.595 24.6157V18.3243H150.789C151.942 18.3243 152.886 19.268 152.886 20.4215V24.6157H146.595Z" fill="#355D67"/>
<path d="M165.103 18.3243H158.812V24.6157H165.103V18.3243Z" fill="#355D67"/>
<path d="M66.5336 30.7238C65.0656 30.7238 61.0811 25.9004 61.0811 24.4324H67.3724V29.8849C67.3724 30.3044 66.953 30.7238 66.5336 30.7238Z" fill="#355D67"/>
<path d="M79.5892 24.4325V30.7238H75.395C74.2416 30.7238 73.2979 29.7801 73.2979 28.6267V24.4325H79.5892Z" fill="#355D67"/>
<path d="M85.6966 24.4324H79.4053V30.7238H85.6966V24.4324Z" fill="#355D67"/>
<path d="M91.805 24.4324H85.5137V30.7238H91.805V24.4324Z" fill="#355D67"/>
<path d="M97.7295 29.8849C97.7295 28.417 102.553 24.4324 104.021 24.4324V30.7238H98.5683C98.1489 30.7238 97.7295 30.3044 97.7295 29.8849Z" fill="#355D67"/>
<path d="M110.129 24.4325H103.838V30.7238H110.129V24.4325Z" fill="#355D67"/>
<path d="M122.346 24.4324V30.7238H118.152C116.998 30.7238 116.055 29.7801 116.055 28.6267V24.4324H122.346Z" fill="#355D67"/>
<path d="M128.453 24.4325H122.162V30.7238H128.453V24.4325Z" fill="#355D67"/>
<path d="M134.379 29.8849C134.379 28.417 139.202 24.4324 140.67 24.4324V30.7238H135.218C134.798 30.7238 134.379 30.3044 134.379 29.8849Z" fill="#355D67"/>
<path d="M146.778 24.4324H140.486V30.7238H146.778V24.4324Z" fill="#355D67"/>
<path d="M152.886 24.4324H146.595V30.7238H152.886V24.4324Z" fill="#355D67"/>
<path d="M158.993 24.4325H152.702V30.7238H158.993V24.4325Z" fill="#355D67"/>
<path d="M158.812 24.4324H165.103V28.6267C165.103 29.7801 164.159 30.7238 163.006 30.7238H158.812V24.4324Z" fill="#355D67"/>
<path d="M72.8523 33.4765C71.9086 31.6939 69.9163 30.4357 68.4483 30.5405C67.0852 30.6454 66.7706 32.2182 67.7143 33.8959C68.7629 35.6785 70.6503 36.9367 72.1183 36.8319C73.5862 36.727 73.9008 35.1542 72.8523 33.4765Z" fill="#355D67"/>
<path d="M91.805 30.5405V36.8319H87.6108C86.4574 36.8319 85.5137 35.8882 85.5137 34.7348V30.5405H91.805Z" fill="#355D67"/>
<path d="M91.6211 36.8319V30.5405H95.8153C96.9687 30.5405 97.9124 31.4842 97.9124 32.6376V36.8319H91.6211Z" fill="#355D67"/>
<path d="M110.129 30.5405V36.8319H105.935C104.782 36.8319 103.838 35.8882 103.838 34.7348V30.5405H110.129Z" fill="#355D67"/>
<path d="M109.945 36.8319V30.5405H114.14C115.293 30.5405 116.237 31.4842 116.237 32.6376V36.8319H109.945Z" fill="#355D67"/>
<path d="M127.615 36.8319C126.147 36.8319 122.162 32.0085 122.162 30.5405H128.453V35.993C128.453 36.4125 128.034 36.8319 127.615 36.8319Z" fill="#355D67"/>
<path d="M152.886 30.5405V36.8319H148.692C147.538 36.8319 146.595 35.8882 146.595 34.7348V30.5405H152.886Z" fill="#355D67"/>
<path d="M152.702 30.5406H158.993V34.7348C158.993 35.8882 158.05 36.8319 156.896 36.8319H152.702V30.5406Z" fill="#355D67"/>
<path d="M74.1367 36.6487C75.6047 36.6487 79.5892 41.4721 79.5892 42.94H73.2979V37.4875C73.2979 37.0681 73.7173 36.6487 74.1367 36.6487Z" fill="#355D67"/>
<path d="M97.9124 36.6487V42.94H93.7182C92.5648 42.94 91.6211 41.9963 91.6211 40.8429V36.6487H97.9124Z" fill="#355D67"/>
<path d="M97.7295 42.94V36.6487H101.924C103.077 36.6487 104.021 37.5924 104.021 38.7458V42.94H97.7295Z" fill="#355D67"/>
<path d="M116.237 36.6487H109.945V42.94H116.237V36.6487Z" fill="#355D67"/>
<path d="M129.109 36.6487C130.577 36.6487 134.562 41.4721 134.562 42.94H128.271V37.4875C128.271 37.0681 128.69 36.6487 129.109 36.6487Z" fill="#355D67"/>
<path d="M141.325 36.6487C142.793 36.6487 146.778 41.4721 146.778 42.94H140.486V37.4875C140.486 37.0681 140.906 36.6487 141.325 36.6487Z" fill="#355D67"/>
<path d="M164.473 39.5846C163.53 37.8021 161.537 36.5438 160.069 36.6487C158.706 36.7535 158.392 38.3264 159.335 40.0041C160.384 41.7866 162.271 43.0449 163.739 42.94C165.207 42.8352 165.522 41.2623 164.473 39.5846Z" fill="#355D67"/>
<path d="M61.9199 42.7568C63.3879 42.7568 67.3724 47.5801 67.3724 49.0481H61.0811V43.5956C61.0811 43.1762 61.5005 42.7568 61.9199 42.7568Z" fill="#355D67"/>
<path d="M79.5892 42.7568H73.2979V49.0481H79.5892V42.7568Z" fill="#355D67"/>
<path d="M86.3525 42.7568C87.8205 42.7568 91.805 47.5801 91.805 49.0481H85.5137V43.5956C85.5137 43.1762 85.9331 42.7568 86.3525 42.7568Z" fill="#355D67"/>
<path d="M104.021 42.7568H97.7295V49.0481H104.021V42.7568Z" fill="#355D67"/>
<path d="M116.237 42.7568H109.945V49.0481H116.237V42.7568Z" fill="#355D67"/>
<path d="M128.453 49.0481H122.162V44.8539C122.162 43.7005 123.106 42.7568 124.259 42.7568H128.453V49.0481Z" fill="#355D67"/>
<path d="M128.271 42.7568H134.562V46.951C134.562 48.1044 133.618 49.0481 132.465 49.0481H128.271V42.7568Z" fill="#355D67"/>
<path d="M146.778 42.7568V49.0481H142.583C141.43 49.0481 140.486 48.1044 140.486 46.951V42.7568H146.778Z" fill="#355D67"/>
<path d="M146.595 49.0481V42.7568H150.789C151.942 42.7568 152.886 43.7005 152.886 44.8539V49.0481H146.595Z" fill="#355D67"/>
<path d="M67.3724 48.8649H61.0811V55.1562H67.3724V48.8649Z" fill="#355D67"/>
<path d="M79.5892 48.8649H73.2979V55.1562H79.5892V48.8649Z" fill="#355D67"/>
<path d="M90.9662 55.1562C89.4982 55.1562 85.5137 50.3329 85.5137 48.8649H91.805V54.3174C91.805 54.7368 91.3856 55.1562 90.9662 55.1562Z" fill="#355D67"/>
<path d="M103.182 55.1562C101.714 55.1562 97.7295 50.3329 97.7295 48.8649H104.021V54.3174C104.021 54.7368 103.601 55.1562 103.182 55.1562Z" fill="#355D67"/>
<path d="M115.398 55.1562C113.93 55.1562 109.945 50.3329 109.945 48.8649H116.237V54.3174C116.237 54.7368 115.817 55.1562 115.398 55.1562Z" fill="#355D67"/>
<path d="M127.615 55.1562C126.147 55.1562 122.162 50.3328 122.162 48.8648H128.453V54.3173C128.453 54.7367 128.034 55.1562 127.615 55.1562Z" fill="#355D67"/>
<path d="M140.041 51.8008C139.097 50.0183 137.105 48.76 135.637 48.8649C134.274 48.9697 133.959 50.5426 134.903 52.2202C135.951 54.0028 137.839 55.2611 139.307 55.1562C140.775 55.0514 141.089 53.4785 140.041 51.8008Z" fill="#355D67"/>
<path d="M152.886 48.8649H146.595V55.1562H152.886V48.8649Z" fill="#355D67"/>
<path d="M159.65 48.8649C161.118 48.8649 165.103 53.6882 165.103 55.1562H158.812V49.7037C158.812 49.2843 159.231 48.8649 159.65 48.8649Z" fill="#355D67"/>
<path d="M67.3724 54.973H61.0811V61.2643H67.3724V54.973Z" fill="#355D67"/>
<path d="M79.5892 54.973V61.2643H75.395C74.2416 61.2643 73.2979 60.3206 73.2979 59.1672V54.973H79.5892Z" fill="#355D67"/>
<path d="M79.4053 61.2643V54.973H83.5995C84.7529 54.973 85.6966 55.9167 85.6966 57.0701V61.2643H79.4053Z" fill="#355D67"/>
<path d="M109.5 57.9089C108.556 56.1264 106.564 54.8681 105.096 54.973C103.733 55.0778 103.418 56.6506 104.362 58.3283C105.41 60.1109 107.298 61.3692 108.766 61.2643C110.234 61.1595 110.548 59.5866 109.5 57.9089Z" fill="#355D67"/>
<path d="M121.717 57.9089C120.773 56.1264 118.781 54.8681 117.313 54.973C115.949 55.0778 115.635 56.6506 116.579 58.3283C117.627 60.1109 119.515 61.3692 120.983 61.2643C122.451 61.1595 122.765 59.5866 121.717 57.9089Z" fill="#355D67"/>
<path d="M133.933 57.9089C132.99 56.1264 130.997 54.8681 129.529 54.973C128.166 55.0778 127.852 56.6506 128.795 58.3283C129.844 60.1109 131.731 61.3692 133.199 61.2643C134.667 61.1595 134.982 59.5866 133.933 57.9089Z" fill="#355D67"/>
<path d="M140.486 60.4255C140.486 58.9575 145.31 54.973 146.778 54.973V61.2643H141.325C140.906 61.2643 140.486 60.8449 140.486 60.4255Z" fill="#355D67"/>
<path d="M152.886 54.973H146.595V61.2643H152.886V54.973Z" fill="#355D67"/>
<path d="M165.103 54.973H158.812V61.2643H165.103V54.973Z" fill="#355D67"/>
<path d="M30.724 67.3725H24.4326V63.1782C24.4326 62.0248 25.3763 61.0811 26.5297 61.0811H30.724V67.3725Z" fill="#355D67"/>
<path d="M36.8314 61.0811H30.54V67.3725H36.8314V61.0811Z" fill="#355D67"/>
<path d="M42.9398 61.92C42.9398 63.388 38.1164 67.3725 36.6484 67.3725V61.0812H42.1009C42.5204 61.0812 42.9398 61.5006 42.9398 61.92Z" fill="#355D67"/>
<path d="M54.5271 64.017C53.5834 62.2345 51.5911 60.9762 50.1231 61.081C48.76 61.1859 48.4454 62.7587 49.3891 64.4364C50.4377 66.219 52.3251 67.4773 53.7931 67.3724C55.2611 67.2675 55.5756 65.6947 54.5271 64.017Z" fill="#355D67"/>
<path d="M66.5336 67.3725C65.0656 67.3725 61.0811 62.5491 61.0811 61.0811H67.3724V66.5336C67.3724 66.953 66.953 67.3725 66.5336 67.3725Z" fill="#355D67"/>
<path d="M85.6966 61.0811V67.3725H81.5024C80.349 67.3725 79.4053 66.4288 79.4053 65.2754V61.0811H85.6966Z" fill="#355D67"/>
<path d="M91.805 61.0811H85.5137V67.3725H91.805V61.0811Z" fill="#355D67"/>
<path d="M91.6211 67.3725V61.0811H95.8153C96.9687 61.0811 97.9124 62.0248 97.9124 63.1782V67.3725H91.6211Z" fill="#355D67"/>
<path d="M152.886 61.0811H146.595V67.3725H152.886V61.0811Z" fill="#355D67"/>
<path d="M165.103 61.0811V67.3725H160.909C159.755 67.3725 158.812 66.4288 158.812 65.2754V61.0811H165.103Z" fill="#355D67"/>
<path d="M171.21 61.0811H164.919V67.3725H171.21V61.0811Z" fill="#355D67"/>
<path d="M177.318 61.0811H171.026V67.3725H177.318V61.0811Z" fill="#355D67"/>
<path d="M183.427 61.92C183.427 63.3879 178.604 67.3725 177.136 67.3725V61.0811H182.588C183.008 61.0811 183.427 61.5005 183.427 61.92Z" fill="#355D67"/>
<path d="M201.751 67.3725H195.46V63.1782C195.46 62.0248 196.404 61.0811 197.557 61.0811H201.751V67.3725Z" fill="#355D67"/>
<path d="M207.859 61.0811H201.567V67.3725H207.859V61.0811Z" fill="#355D67"/>
<path d="M207.676 67.3725V61.0812H211.87C213.023 61.0812 213.967 62.0249 213.967 63.1783V67.3725H207.676Z" fill="#355D67"/>
<path d="M13.0556 67.1892C14.5236 67.1892 18.5081 72.0126 18.5081 73.4806H12.2168V68.0281C12.2168 67.6086 12.6362 67.1892 13.0556 67.1892Z" fill="#355D67"/>
<path d="M30.724 67.1892V73.4806H26.5297C25.3763 73.4806 24.4326 72.5369 24.4326 71.3835V67.1892H30.724Z" fill="#355D67"/>
<path d="M36.8314 67.1892H30.54V73.4806H36.8314V67.1892Z" fill="#355D67"/>
<path d="M48.4187 70.1252C47.475 68.3426 45.4827 67.0843 44.0147 67.1892C42.6516 67.2941 42.337 68.8669 43.2807 70.5446C44.3293 72.3271 46.2167 73.5854 47.6847 73.4806C49.1527 73.3757 49.4672 71.8029 48.4187 70.1252Z" fill="#355D67"/>
<path d="M91.805 67.1892H85.5137V73.4806H91.805V67.1892Z" fill="#355D67"/>
<path d="M97.9124 67.1892H91.6211V73.4806H97.9124V67.1892Z" fill="#355D67"/>
<path d="M97.7295 73.4806V67.1892H101.924C103.077 67.1892 104.021 68.1329 104.021 69.2863V73.4806H97.7295Z" fill="#355D67"/>
<path d="M122.346 73.4806H116.055V69.2863C116.055 68.1329 116.998 67.1892 118.152 67.1892H122.346V73.4806Z" fill="#355D67"/>
<path d="M122.162 73.4806V67.1892H126.356C127.51 67.1892 128.453 68.1329 128.453 69.2863V73.4806H122.162Z" fill="#355D67"/>
<path d="M140.041 70.1251C139.097 68.3426 137.105 67.0843 135.637 67.1892C134.274 67.294 133.959 68.8669 134.903 70.5446C135.951 72.3271 137.839 73.5854 139.307 73.4805C140.775 73.3757 141.089 71.8028 140.041 70.1251Z" fill="#355D67"/>
<path d="M152.886 67.1892H146.595V73.4806H152.886V67.1892Z" fill="#355D67"/>
<path d="M158.993 68.0281C158.993 69.496 154.17 73.4806 152.702 73.4806V67.1892H158.155C158.574 67.1892 158.993 67.6086 158.993 68.0281Z" fill="#355D67"/>
<path d="M171.21 67.1892H164.919V73.4806H171.21V67.1892Z" fill="#355D67"/>
<path d="M171.026 67.1892H177.318V71.3834C177.318 72.5369 176.374 73.4806 175.221 73.4806H171.026V67.1892Z" fill="#355D67"/>
<path d="M201.751 67.1892H195.46V73.4806H201.751V67.1892Z" fill="#355D67"/>
<path d="M213.128 73.4805C211.66 73.4805 207.676 68.6572 207.676 67.1892H213.967V72.6417C213.967 73.0611 213.548 73.4805 213.128 73.4805Z" fill="#355D67"/>
<path d="M18.5081 73.2973H12.2168V79.5887H18.5081V73.2973Z" fill="#355D67"/>
<path d="M24.6156 74.1361C24.6156 75.6041 19.7922 79.5887 18.3242 79.5887V73.2973H23.7767C24.1961 73.2973 24.6156 73.7167 24.6156 74.1361Z" fill="#355D67"/>
<path d="M36.8314 73.2973H30.54V79.5887H36.8314V73.2973Z" fill="#355D67"/>
<path d="M48.8643 78.7498C48.8643 77.2818 53.6876 73.2973 55.1556 73.2973V79.5887H49.7031C49.2837 79.5887 48.8643 79.1692 48.8643 78.7498Z" fill="#355D67"/>
<path d="M61.265 73.2973H54.9736V79.5887H61.265V73.2973Z" fill="#355D67"/>
<path d="M67.3724 74.1361C67.3724 75.6041 62.549 79.5887 61.0811 79.5887V73.2973H66.5336C66.953 73.2973 67.3724 73.7167 67.3724 74.1361Z" fill="#355D67"/>
<path d="M85.6966 79.5887H79.4053V75.3944C79.4053 74.241 80.349 73.2973 81.5024 73.2973H85.6966V79.5887Z" fill="#355D67"/>
<path d="M91.805 73.2973H85.5137V79.5887H91.805V73.2973Z" fill="#355D67"/>
<path d="M104.021 73.2973H97.7295V79.5887H104.021V73.2973Z" fill="#355D67"/>
<path d="M103.838 79.5887V73.2973H108.032C109.186 73.2973 110.129 74.241 110.129 75.3944V79.5887H103.838Z" fill="#355D67"/>
<path d="M122.346 73.2973V79.5887H118.152C116.998 79.5887 116.055 78.645 116.055 77.4915V73.2973H122.346Z" fill="#355D67"/>
<path d="M128.453 73.2973H122.162V79.5887H128.453V73.2973Z" fill="#355D67"/>
<path d="M134.562 74.1361C134.562 75.6041 129.738 79.5887 128.271 79.5887V73.2973H133.723C134.142 73.2973 134.562 73.7167 134.562 74.1361Z" fill="#355D67"/>
<path d="M152.047 79.5887C150.579 79.5887 146.595 74.7653 146.595 73.2973H152.886V78.7498C152.886 79.1692 152.467 79.5887 152.047 79.5887Z" fill="#355D67"/>
<path d="M158.812 78.7498C158.812 77.2818 163.635 73.2973 165.103 73.2973V79.5887H159.65C159.231 79.5887 158.812 79.1692 158.812 78.7498Z" fill="#355D67"/>
<path d="M171.21 73.2973H164.919V79.5887H171.21V73.2973Z" fill="#355D67"/>
<path d="M182.798 76.2333C181.854 74.4507 179.862 73.1924 178.394 73.2973C177.03 73.4022 176.716 74.975 177.66 76.6527C178.708 78.4352 180.596 79.6935 182.064 79.5886C183.532 79.4838 183.846 77.911 182.798 76.2333Z" fill="#355D67"/>
<path d="M195.643 79.5887H189.352V75.3944C189.352 74.241 190.295 73.2973 191.449 73.2973H195.643V79.5887Z" fill="#355D67"/>
<path d="M201.751 73.2973H195.46V79.5887H201.751V73.2973Z" fill="#355D67"/>
<path d="M18.5081 79.4054H12.2168V85.6967H18.5081V79.4054Z" fill="#355D67"/>
<path d="M36.8314 79.4054H30.54V85.6967H36.8314V79.4054Z" fill="#355D67"/>
<path d="M36.6484 85.6967V79.4054H40.8427C41.9961 79.4054 42.9398 80.3491 42.9398 81.5025V85.6967H36.6484Z" fill="#355D67"/>
<path d="M61.265 79.4054H54.9736V85.6968H61.265V79.4054Z" fill="#355D67"/>
<path d="M85.6966 79.4054V85.6968H81.5024C80.349 85.6968 79.4053 84.7531 79.4053 83.5997V79.4054H85.6966Z" fill="#355D67"/>
<path d="M91.805 79.4054H85.5137V85.6968H91.805V79.4054Z" fill="#355D67"/>
<path d="M97.9124 79.4054H91.6211V85.6968H97.9124V79.4054Z" fill="#355D67"/>
<path d="M104.021 79.4054H97.7295V85.6968H104.021V79.4054Z" fill="#355D67"/>
<path d="M110.129 79.4054H103.838V85.6968H110.129V79.4054Z" fill="#355D67"/>
<path d="M153.541 79.4054C155.009 79.4054 158.993 84.2288 158.993 85.6968H152.702V80.2443C152.702 79.8248 153.122 79.4054 153.541 79.4054Z" fill="#355D67"/>
<path d="M170.371 85.6968C168.903 85.6968 164.919 80.8734 164.919 79.4054H171.21V84.8579C171.21 85.2774 170.791 85.6968 170.371 85.6968Z" fill="#355D67"/>
<path d="M195.643 79.4054V85.6967H191.449C190.295 85.6967 189.352 84.753 189.352 83.5996V79.4054H195.643Z" fill="#355D67"/>
<path d="M195.46 79.4054H201.751V83.5996C201.751 84.753 200.808 85.6967 199.654 85.6967H195.46V79.4054Z" fill="#355D67"/>
<path d="M17.6693 91.8049C16.2013 91.8049 12.2168 86.9815 12.2168 85.5135H18.5081V90.966C18.5081 91.3854 18.0887 91.8049 17.6693 91.8049Z" fill="#355D67"/>
<path d="M36.8314 85.5135V91.8049H32.6372C31.4837 91.8049 30.54 90.8612 30.54 89.7078V85.5135H36.8314Z" fill="#355D67"/>
<path d="M42.9398 85.5135H36.6484V91.8049H42.9398V85.5135Z" fill="#355D67"/>
<path d="M48.8643 90.966C48.8643 89.498 53.6876 85.5135 55.1556 85.5135V91.8049H49.7031C49.2837 91.8049 48.8643 91.3854 48.8643 90.966Z" fill="#355D67"/>
<path d="M61.265 85.5135H54.9736V91.8049H61.265V85.5135Z" fill="#355D67"/>
<path d="M67.3724 85.5135H61.0811V91.8049H67.3724V85.5135Z" fill="#355D67"/>
<path d="M73.4798 85.5135H67.1885V91.8049H73.4798V85.5135Z" fill="#355D67"/>
<path d="M79.5892 86.3524C79.5892 87.8203 74.7658 91.8049 73.2979 91.8049V85.5135H78.7504C79.1698 85.5135 79.5892 85.9329 79.5892 86.3524Z" fill="#355D67"/>
<path d="M91.805 85.5135H85.5137V91.8049H91.805V85.5135Z" fill="#355D67"/>
<path d="M91.6211 85.5135H97.9124V89.7078C97.9124 90.8612 96.9687 91.8049 95.8153 91.8049H91.6211V85.5135Z" fill="#355D67"/>
<path d="M110.129 85.5135H103.838V91.8048H110.129V85.5135Z" fill="#355D67"/>
<path d="M122.346 91.8049H116.055V87.6106C116.055 86.4572 116.998 85.5135 118.152 85.5135H122.346V91.8049Z" fill="#355D67"/>
<path d="M128.453 86.3523C128.453 87.8203 123.63 91.8048 122.162 91.8048V85.5135H127.615C128.034 85.5135 128.453 85.9329 128.453 86.3523Z" fill="#355D67"/>
<path d="M140.486 90.966C140.486 89.498 145.31 85.5135 146.778 85.5135V91.8049H141.325C140.906 91.8049 140.486 91.3854 140.486 90.966Z" fill="#355D67"/>
<path d="M152.886 85.5135H146.595V91.8049H152.886V85.5135Z" fill="#355D67"/>
<path d="M158.993 85.5135H152.702V91.8049H158.993V85.5135Z" fill="#355D67"/>
<path d="M165.103 86.3524C165.103 87.8203 160.28 91.8049 158.812 91.8049V85.5135H164.264C164.683 85.5135 165.103 85.9329 165.103 86.3524Z" fill="#355D67"/>
<path d="M182.798 88.4495C181.854 86.6669 179.862 85.4087 178.394 85.5135C177.03 85.6184 176.716 87.1912 177.66 88.8689C178.708 90.6515 180.596 91.9097 182.064 91.8049C183.532 91.7 183.846 90.1272 182.798 88.4495Z" fill="#355D67"/>
<path d="M207.23 88.4495C206.286 86.6669 204.294 85.4087 202.826 85.5135C201.463 85.6184 201.149 87.1912 202.092 88.8689C203.141 90.6515 205.028 91.9097 206.496 91.8049C207.964 91.7 208.279 90.1272 207.23 88.4495Z" fill="#355D67"/>
<path d="M24.6156 97.913H18.3242V93.7187C18.3242 92.5653 19.2679 91.6216 20.4213 91.6216H24.6156V97.913Z" fill="#355D67"/>
<path d="M30.724 92.4605C30.724 93.9284 25.9006 97.913 24.4326 97.913V91.6216H29.8851C30.3045 91.6216 30.724 92.041 30.724 92.4605Z" fill="#355D67"/>
<path d="M42.9398 91.6216H36.6484V97.9129H42.9398V91.6216Z" fill="#355D67"/>
<path d="M60.4261 97.913C58.9582 97.913 54.9736 93.0896 54.9736 91.6216H61.265V97.0741C61.265 97.4936 60.8456 97.913 60.4261 97.913Z" fill="#355D67"/>
<path d="M73.4798 91.6216H67.1885V97.913H73.4798V91.6216Z" fill="#355D67"/>
<path d="M90.9662 97.913C89.4982 97.913 85.5137 93.0896 85.5137 91.6216H91.805V97.0741C91.805 97.4936 91.3856 97.913 90.9662 97.913Z" fill="#355D67"/>
<path d="M104.021 97.913H97.7295V93.7188C97.7295 92.5653 98.6732 91.6216 99.8266 91.6216H104.021V97.913Z" fill="#355D67"/>
<path d="M110.129 91.6216H103.838V97.9129H110.129V91.6216Z" fill="#355D67"/>
<path d="M116.237 91.6216H109.945V97.913H116.237V91.6216Z" fill="#355D67"/>
<path d="M116.055 91.6216H122.346V95.8159C122.346 96.9693 121.402 97.913 120.249 97.913H116.055V91.6216Z" fill="#355D67"/>
<path d="M158.155 97.913C156.687 97.913 152.702 93.0896 152.702 91.6216H158.993V97.0741C158.993 97.4935 158.574 97.913 158.155 97.913Z" fill="#355D67"/>
<path d="M176.689 94.5576C175.745 92.7751 173.753 91.5168 172.285 91.6216C170.922 91.7265 170.608 93.2993 171.551 94.977C172.6 96.7596 174.487 98.0178 175.955 97.913C177.423 97.8081 177.738 96.2353 176.689 94.5576Z" fill="#355D67"/>
<path d="M189.535 97.913H183.243V93.7188C183.243 92.5653 184.187 91.6216 185.34 91.6216H189.535V97.913Z" fill="#355D67"/>
<path d="M195.643 92.4604C195.643 93.9284 190.82 97.9129 189.352 97.9129V91.6216H194.804C195.223 91.6216 195.643 92.041 195.643 92.4604Z" fill="#355D67"/>
<path d="M213.338 94.5576C212.394 92.7751 210.402 91.5168 208.934 91.6216C207.571 91.7265 207.256 93.2993 208.2 94.977C209.248 96.7596 211.136 98.0178 212.604 97.913C214.072 97.8081 214.386 96.2353 213.338 94.5576Z" fill="#355D67"/>
<path d="M24.6156 97.7297H18.3242V104.021H24.6156V97.7297Z" fill="#355D67"/>
<path d="M36.8314 104.021H30.54V99.8269C30.54 98.6734 31.4837 97.7297 32.6372 97.7297H36.8314V104.021Z" fill="#355D67"/>
<path d="M42.9398 97.7297H36.6484V104.021H42.9398V97.7297Z" fill="#355D67"/>
<path d="M54.5271 100.666C53.5834 98.8831 51.5911 97.6249 50.1231 97.7297C48.76 97.8346 48.4454 99.4074 49.3891 101.085C50.4377 102.868 52.3251 104.126 53.7931 104.021C55.2611 103.916 55.5756 102.343 54.5271 100.666Z" fill="#355D67"/>
<path d="M73.4798 97.7297H67.1885V104.021H73.4798V97.7297Z" fill="#355D67"/>
<path d="M97.9124 104.021H91.6211V99.8269C91.6211 98.6734 92.5648 97.7297 93.7182 97.7297H97.9124V104.021Z" fill="#355D67"/>
<path d="M104.021 97.7297H97.7295V104.021H104.021V97.7297Z" fill="#355D67"/>
<path d="M103.838 97.7298H110.129V101.924C110.129 103.077 109.186 104.021 108.032 104.021H103.838V97.7298Z" fill="#355D67"/>
<path d="M129.109 97.7297C130.577 97.7297 134.562 102.553 134.562 104.021H128.271V98.5686C128.271 98.1492 128.69 97.7297 129.109 97.7297Z" fill="#355D67"/>
<path d="M147.434 97.7297C148.902 97.7297 152.886 102.553 152.886 104.021H146.595V98.5686C146.595 98.1492 147.014 97.7297 147.434 97.7297Z" fill="#355D67"/>
<path d="M158.812 103.182C158.812 101.714 163.635 97.7297 165.103 97.7297V104.021H159.65C159.231 104.021 158.812 103.602 158.812 103.182Z" fill="#355D67"/>
<path d="M164.919 104.021V97.7297H169.113C170.267 97.7297 171.21 98.6734 171.21 99.8269V104.021H164.919Z" fill="#355D67"/>
<path d="M177.136 103.182C177.136 101.714 181.959 97.7297 183.427 97.7297V104.021H177.975C177.555 104.021 177.136 103.602 177.136 103.182Z" fill="#355D67"/>
<path d="M189.535 97.7297H183.243V104.021H189.535V97.7297Z" fill="#355D67"/>
<path d="M207.23 100.666C206.286 98.8831 204.294 97.6249 202.826 97.7297C201.463 97.8346 201.149 99.4074 202.092 101.085C203.141 102.868 205.028 104.126 206.496 104.021C207.964 103.916 208.279 102.343 207.23 100.666Z" fill="#355D67"/>
<path d="M18.5081 110.129H12.2168V105.935C12.2168 104.782 13.1605 103.838 14.3139 103.838H18.5081V110.129Z" fill="#355D67"/>
<path d="M24.6156 103.838H18.3242V110.129H24.6156V103.838Z" fill="#355D67"/>
<path d="M30.724 103.838H24.4326V110.129H30.724V103.838Z" fill="#355D67"/>
<path d="M36.8314 103.838H30.54V110.129H36.8314V103.838Z" fill="#355D67"/>
<path d="M42.9398 103.838H36.6484V110.129H42.9398V103.838Z" fill="#355D67"/>
<path d="M55.8125 103.838C57.2805 103.838 61.265 108.661 61.265 110.129H54.9736V104.677C54.9736 104.257 55.3931 103.838 55.8125 103.838Z" fill="#355D67"/>
<path d="M73.4798 103.838H67.1885V110.129H73.4798V103.838Z" fill="#355D67"/>
<path d="M79.5892 103.838H73.2979V110.129H79.5892V103.838Z" fill="#355D67"/>
<path d="M85.6966 104.677C85.6966 106.145 80.8733 110.129 79.4053 110.129V103.838H84.8578C85.2772 103.838 85.6966 104.257 85.6966 104.677Z" fill="#355D67"/>
<path d="M97.9124 103.838H91.6211V110.129H97.9124V103.838Z" fill="#355D67"/>
<path d="M104.021 103.838H97.7295V110.129H104.021V103.838Z" fill="#355D67"/>
<path d="M110.784 103.838C112.252 103.838 116.237 108.661 116.237 110.129H109.945V104.677C109.945 104.257 110.365 103.838 110.784 103.838Z" fill="#355D67"/>
<path d="M128.453 110.129H122.162V105.935C122.162 104.782 123.106 103.838 124.259 103.838H128.453V110.129Z" fill="#355D67"/>
<path d="M128.271 103.838H134.562V108.032C134.562 109.186 133.618 110.129 132.465 110.129H128.271V103.838Z" fill="#355D67"/>
<path d="M140.486 109.29C140.486 107.822 145.31 103.838 146.778 103.838V110.129H141.325C140.906 110.129 140.486 109.71 140.486 109.29Z" fill="#355D67"/>
<path d="M152.886 103.838H146.595V110.129H152.886V103.838Z" fill="#355D67"/>
<path d="M152.702 110.129V103.838H156.896C158.05 103.838 158.993 104.781 158.993 105.935V110.129H152.702Z" fill="#355D67"/>
<path d="M171.21 103.838H164.919V110.129H171.21V103.838Z" fill="#355D67"/>
<path d="M189.535 103.838V110.129H185.34C184.187 110.129 183.243 109.186 183.243 108.032V103.838H189.535Z" fill="#355D67"/>
<path d="M195.643 104.677C195.643 106.145 190.82 110.129 189.352 110.129V103.838H194.804C195.223 103.838 195.643 104.257 195.643 104.677Z" fill="#355D67"/>
<path d="M208.515 103.838C209.983 103.838 213.967 108.661 213.967 110.129H207.676V104.677C207.676 104.257 208.095 103.838 208.515 103.838Z" fill="#355D67"/>
<path d="M18.5081 109.946H12.2168V116.237H18.5081V109.946Z" fill="#355D67"/>
<path d="M24.6156 109.946H18.3242V116.237H24.6156V109.946Z" fill="#355D67"/>
<path d="M30.724 109.946H24.4326V116.237H30.724V109.946Z" fill="#355D67"/>
<path d="M36.8314 109.946H30.54V116.237H36.8314V109.946Z" fill="#355D67"/>
<path d="M36.6484 109.946H42.9398V114.14C42.9398 115.294 41.9961 116.237 40.8427 116.237H36.6484V109.946Z" fill="#355D67"/>
<path d="M48.8643 115.398C48.8643 113.93 53.6876 109.946 55.1556 109.946V116.237H49.7031C49.2837 116.237 48.8643 115.818 48.8643 115.398Z" fill="#355D67"/>
<path d="M61.265 109.946H54.9736V116.237H61.265V109.946Z" fill="#355D67"/>
<path d="M73.4798 109.946H67.1885V116.237H73.4798V109.946Z" fill="#355D67"/>
<path d="M91.805 116.237H85.5137V112.043C85.5137 110.89 86.4574 109.946 87.6108 109.946H91.805V116.237Z" fill="#355D67"/>
<path d="M97.9124 109.946H91.6211V116.237H97.9124V109.946Z" fill="#355D67"/>
<path d="M104.021 109.946H97.7295V116.237H104.021V109.946Z" fill="#355D67"/>
<path d="M110.129 109.946H103.838V116.237H110.129V109.946Z" fill="#355D67"/>
<path d="M116.237 109.946H109.945V116.237H116.237V109.946Z" fill="#355D67"/>
<path d="M122.346 109.946H116.055V116.237H122.346V109.946Z" fill="#355D67"/>
<path d="M122.162 109.946H128.453V114.14C128.453 115.294 127.51 116.237 126.356 116.237H122.162V109.946Z" fill="#355D67"/>
<path d="M158.993 109.946H152.702V116.237H158.993V109.946Z" fill="#355D67"/>
<path d="M170.371 116.237C168.903 116.237 164.919 111.414 164.919 109.946H171.21V115.398C171.21 115.818 170.791 116.237 170.371 116.237Z" fill="#355D67"/>
<path d="M182.798 112.882C181.854 111.099 179.862 109.841 178.394 109.946C177.03 110.051 176.716 111.624 177.66 113.301C178.708 115.084 180.596 116.342 182.064 116.237C183.532 116.132 183.846 114.56 182.798 112.882Z" fill="#355D67"/>
<path d="M201.122 112.882C200.178 111.099 198.186 109.841 196.718 109.946C195.355 110.051 195.04 111.624 195.984 113.301C197.032 115.084 198.92 116.342 200.388 116.237C201.856 116.132 202.17 114.56 201.122 112.882Z" fill="#355D67"/>
<path d="M213.128 116.237C211.66 116.237 207.676 111.414 207.676 109.946H213.967V115.398C213.967 115.818 213.548 116.237 213.128 116.237Z" fill="#355D67"/>
<path d="M18.5081 116.054V122.345H14.3139C13.1605 122.345 12.2168 121.402 12.2168 120.248V116.054H18.5081Z" fill="#355D67"/>
<path d="M24.6156 116.054H18.3242V122.345H24.6156V116.054Z" fill="#355D67"/>
<path d="M35.9925 122.345C34.5246 122.345 30.54 117.522 30.54 116.054H36.8314V121.507C36.8314 121.926 36.412 122.345 35.9925 122.345Z" fill="#355D67"/>
<path d="M43.5957 116.054C45.0637 116.054 49.0482 120.877 49.0482 122.345H42.7568V116.893C42.7568 116.473 43.1763 116.054 43.5957 116.054Z" fill="#355D67"/>
<path d="M61.265 116.054H54.9736V122.345H61.265V116.054Z" fill="#355D67"/>
<path d="M73.4798 116.054V122.345H69.2856C68.1322 122.345 67.1885 121.402 67.1885 120.248V116.054H73.4798Z" fill="#355D67"/>
<path d="M73.2979 122.345V116.054H77.4921C78.6455 116.054 79.5892 116.998 79.5892 118.151V122.345H73.2979Z" fill="#355D67"/>
<path d="M90.9662 122.345C89.4982 122.345 85.5137 117.522 85.5137 116.054H91.805V121.507C91.805 121.926 91.3856 122.345 90.9662 122.345Z" fill="#355D67"/>
<path d="M116.237 116.054V122.345H112.042C110.889 122.345 109.945 121.402 109.945 120.248V116.054H116.237Z" fill="#355D67"/>
<path d="M116.055 116.054H122.346V120.248C122.346 121.402 121.402 122.345 120.249 122.345H116.055V116.054Z" fill="#355D67"/>
<path d="M134.562 122.345H128.271V118.151C128.271 116.998 129.214 116.054 130.368 116.054H134.562V122.345Z" fill="#355D67"/>
<path d="M140.67 116.054H134.379V122.345H140.67V116.054Z" fill="#355D67"/>
<path d="M146.778 116.893C146.778 118.361 141.954 122.345 140.486 122.345V116.054H145.939C146.358 116.054 146.778 116.473 146.778 116.893Z" fill="#355D67"/>
<path d="M158.993 116.054V122.345H154.799C153.646 122.345 152.702 121.402 152.702 120.248V116.054H158.993Z" fill="#355D67"/>
<path d="M165.103 116.893C165.103 118.361 160.28 122.345 158.812 122.345V116.054H164.264C164.683 116.054 165.103 116.473 165.103 116.893Z" fill="#355D67"/>
<path d="M176.689 118.99C175.745 117.207 173.753 115.949 172.285 116.054C170.922 116.159 170.608 117.732 171.551 119.409C172.6 121.192 174.487 122.45 175.955 122.345C177.423 122.241 177.738 120.668 176.689 118.99Z" fill="#355D67"/>
<path d="M23.7767 128.454C22.3087 128.454 18.3242 123.63 18.3242 122.162H24.6156V127.615C24.6156 128.034 24.1961 128.454 23.7767 128.454Z" fill="#355D67"/>
<path d="M42.9398 128.454H36.6484V124.259C36.6484 123.106 37.5921 122.162 38.7456 122.162H42.9398V128.454Z" fill="#355D67"/>
<path d="M49.0482 122.162H42.7568V128.453H49.0482V122.162Z" fill="#355D67"/>
<path d="M55.1556 122.162H48.8643V128.454H55.1556V122.162Z" fill="#355D67"/>
<path d="M54.9736 122.162H61.265V126.356C61.265 127.51 60.3213 128.453 59.1679 128.453H54.9736V122.162Z" fill="#355D67"/>
<path d="M79.5892 122.162V128.454H75.395C74.2416 128.454 73.2979 127.51 73.2979 126.356V122.162H79.5892Z" fill="#355D67"/>
<path d="M85.6966 123.001C85.6966 124.469 80.8733 128.453 79.4053 128.453V122.162H84.8578C85.2772 122.162 85.6966 122.582 85.6966 123.001Z" fill="#355D67"/>
<path d="M91.6211 127.615C91.6211 126.147 96.4445 122.162 97.9124 122.162V128.453H92.4599C92.0405 128.453 91.6211 128.034 91.6211 127.615Z" fill="#355D67"/>
<path d="M104.021 123.001C104.021 124.469 99.1975 128.453 97.7295 128.453V122.162H103.182C103.601 122.162 104.021 122.582 104.021 123.001Z" fill="#355D67"/>
<path d="M133.723 128.453C132.255 128.453 128.271 123.63 128.271 122.162H134.562V127.615C134.562 128.034 134.142 128.453 133.723 128.453Z" fill="#355D67"/>
<path d="M184.082 122.162C185.55 122.162 189.535 126.986 189.535 128.453H183.243V123.001C183.243 122.582 183.663 122.162 184.082 122.162Z" fill="#355D67"/>
<path d="M196.299 122.162C197.767 122.162 201.751 126.986 201.751 128.454H195.46V123.001C195.46 122.582 195.879 122.162 196.299 122.162Z" fill="#355D67"/>
<path d="M17.8786 131.206C16.9349 129.424 14.9427 128.165 13.4747 128.27C12.1116 128.375 11.797 129.948 12.7407 131.626C13.7892 133.408 15.6767 134.666 17.1446 134.562C18.6126 134.457 18.9272 132.884 17.8786 131.206Z" fill="#355D67"/>
<path d="M24.4326 133.723C24.4326 132.255 29.256 128.27 30.724 128.27V134.562H25.2715C24.852 134.562 24.4326 134.142 24.4326 133.723Z" fill="#355D67"/>
<path d="M36.8314 128.27H30.54V134.562H36.8314V128.27Z" fill="#355D67"/>
<path d="M36.6484 128.27H42.9398V132.464C42.9398 133.618 41.9961 134.562 40.8427 134.562H36.6484V128.27Z" fill="#355D67"/>
<path d="M72.8523 131.206C71.9086 129.424 69.9163 128.165 68.4483 128.27C67.0852 128.375 66.7706 129.948 67.7143 131.626C68.7629 133.408 70.6503 134.666 72.1183 134.562C73.5862 134.457 73.9008 132.884 72.8523 131.206Z" fill="#355D67"/>
<path d="M91.1755 131.206C90.2318 129.424 88.2395 128.165 86.7716 128.27C85.4084 128.375 85.0939 129.948 86.0376 131.626C87.0861 133.408 88.9735 134.666 90.4415 134.562C91.9095 134.457 92.2241 132.884 91.1755 131.206Z" fill="#355D67"/>
<path d="M103.838 133.723C103.838 132.255 108.661 128.27 110.129 128.27V134.562H104.677C104.257 134.562 103.838 134.142 103.838 133.723Z" fill="#355D67"/>
<path d="M116.237 129.109C116.237 130.577 111.413 134.562 109.945 134.562V128.27H115.398C115.817 128.27 116.237 128.69 116.237 129.109Z" fill="#355D67"/>
<path d="M134.379 133.723C134.379 132.255 139.202 128.27 140.67 128.27V134.562H135.218C134.798 134.562 134.379 134.142 134.379 133.723Z" fill="#355D67"/>
<path d="M146.778 128.27H140.486V134.562H146.778V128.27Z" fill="#355D67"/>
<path d="M152.886 128.27H146.595V134.562H152.886V128.27Z" fill="#355D67"/>
<path d="M158.993 128.27H152.702V134.562H158.993V128.27Z" fill="#355D67"/>
<path d="M165.103 128.27H158.812V134.562H165.103V128.27Z" fill="#355D67"/>
<path d="M171.21 129.109C171.21 130.577 166.387 134.562 164.919 134.562V128.27H170.371C170.791 128.27 171.21 128.69 171.21 129.109Z" fill="#355D67"/>
<path d="M189.535 128.27H183.243V134.562H189.535V128.27Z" fill="#355D67"/>
<path d="M195.643 128.27H189.352V134.562H195.643V128.27Z" fill="#355D67"/>
<path d="M201.751 128.27H195.46V134.562H201.751V128.27Z" fill="#355D67"/>
<path d="M207.859 128.27H201.567V134.562H207.859V128.27Z" fill="#355D67"/>
<path d="M213.967 129.109C213.967 130.577 209.144 134.562 207.676 134.562V128.27H213.128C213.548 128.27 213.967 128.69 213.967 129.109Z" fill="#355D67"/>
<path d="M23.986 137.314C23.0423 135.532 21.0501 134.273 19.5821 134.378C18.219 134.483 17.9044 136.056 18.8481 137.734C19.8967 139.516 21.7841 140.775 23.2521 140.67C24.72 140.565 25.0346 138.992 23.986 137.314Z" fill="#355D67"/>
<path d="M35.9925 140.67C34.5246 140.67 30.54 135.846 30.54 134.378H36.8314V139.831C36.8314 140.25 36.412 140.67 35.9925 140.67Z" fill="#355D67"/>
<path d="M54.5271 137.314C53.5834 135.532 51.5911 134.274 50.1231 134.378C48.76 134.483 48.4454 136.056 49.3891 137.734C50.4377 139.516 52.3251 140.775 53.7931 140.67C55.2611 140.565 55.5756 138.992 54.5271 137.314Z" fill="#355D67"/>
<path d="M61.9199 134.378C63.3879 134.378 67.3724 139.202 67.3724 140.67H61.0811V135.217C61.0811 134.798 61.5005 134.378 61.9199 134.378Z" fill="#355D67"/>
<path d="M79.5892 140.67H73.2979V136.476C73.2979 135.322 74.2416 134.378 75.395 134.378H79.5892V140.67Z" fill="#355D67"/>
<path d="M85.6966 135.217C85.6966 136.685 80.8733 140.67 79.4053 140.67V134.378H84.8578C85.2772 134.378 85.6966 134.798 85.6966 135.217Z" fill="#355D67"/>
<path d="M98.5683 134.378C100.036 134.378 104.021 139.202 104.021 140.67H97.7295V135.217C97.7295 134.798 98.1489 134.378 98.5683 134.378Z" fill="#355D67"/>
<path d="M121.717 137.314C120.773 135.532 118.781 134.274 117.313 134.378C115.949 134.483 115.635 136.056 116.579 137.734C117.627 139.516 119.515 140.775 120.983 140.67C122.451 140.565 122.765 138.992 121.717 137.314Z" fill="#355D67"/>
<path d="M152.047 140.67C150.579 140.67 146.595 135.846 146.595 134.378H152.886V139.831C152.886 140.25 152.467 140.67 152.047 140.67Z" fill="#355D67"/>
<path d="M164.264 140.67C162.796 140.67 158.812 135.846 158.812 134.378H165.103V139.831C165.103 140.25 164.683 140.67 164.264 140.67Z" fill="#355D67"/>
<path d="M177.136 139.831C177.136 138.363 181.959 134.378 183.427 134.378V140.67H177.975C177.555 140.67 177.136 140.25 177.136 139.831Z" fill="#355D67"/>
<path d="M189.535 134.378H183.243V140.67H189.535V134.378Z" fill="#355D67"/>
<path d="M195.643 134.378H189.352V140.67H195.643V134.378Z" fill="#355D67"/>
<path d="M13.0556 140.486C14.5236 140.486 18.5081 145.31 18.5081 146.778H12.2168V141.325C12.2168 140.906 12.6362 140.486 13.0556 140.486Z" fill="#355D67"/>
<path d="M61.265 146.778H54.9736V142.584C54.9736 141.43 55.9173 140.486 57.0707 140.486H61.265V146.778Z" fill="#355D67"/>
<path d="M67.3724 140.486H61.0811V146.778H67.3724V140.486Z" fill="#355D67"/>
<path d="M73.4798 140.486H67.1885V146.778H73.4798V140.486Z" fill="#355D67"/>
<path d="M79.5892 140.486H73.2979V146.778H79.5892V140.486Z" fill="#355D67"/>
<path d="M97.9124 146.778H91.6211V142.584C91.6211 141.43 92.5648 140.486 93.7182 140.486H97.9124V146.778Z" fill="#355D67"/>
<path d="M104.021 140.486H97.7295V146.778H104.021V140.486Z" fill="#355D67"/>
<path d="M110.784 140.486C112.252 140.486 116.237 145.31 116.237 146.778H109.945V141.325C109.945 140.906 110.365 140.486 110.784 140.486Z" fill="#355D67"/>
<path d="M128.453 146.778H122.162V142.584C122.162 141.43 123.106 140.487 124.259 140.487H128.453V146.778Z" fill="#355D67"/>
<path d="M134.562 140.486H128.271V146.778H134.562V140.486Z" fill="#355D67"/>
<path d="M140.67 140.486H134.379V146.778H140.67V140.486Z" fill="#355D67"/>
<path d="M146.778 141.325C146.778 142.793 141.954 146.778 140.486 146.778V140.486H145.939C146.358 140.486 146.778 140.906 146.778 141.325Z" fill="#355D67"/>
<path d="M170.581 143.422C169.637 141.64 167.645 140.382 166.177 140.487C164.814 140.591 164.499 142.164 165.443 143.842C166.491 145.624 168.379 146.883 169.847 146.778C171.315 146.673 171.629 145.1 170.581 143.422Z" fill="#355D67"/>
<path d="M194.804 146.778C193.336 146.778 189.352 141.954 189.352 140.486H195.643V145.939C195.643 146.358 195.223 146.778 194.804 146.778Z" fill="#355D67"/>
<path d="M213.338 143.422C212.394 141.64 210.402 140.382 208.934 140.487C207.571 140.591 207.256 142.164 208.2 143.842C209.248 145.624 211.136 146.883 212.604 146.778C214.072 146.673 214.386 145.1 213.338 143.422Z" fill="#355D67"/>
<path d="M18.5081 146.595H12.2168V152.886H18.5081V146.595Z" fill="#355D67"/>
<path d="M36.8314 152.886H30.54V148.692C30.54 147.538 31.4837 146.595 32.6372 146.595H36.8314V152.886Z" fill="#355D67"/>
<path d="M36.6484 152.886V146.595H40.8427C41.9961 146.595 42.9398 147.538 42.9398 148.692V152.886H36.6484Z" fill="#355D67"/>
<path d="M48.8643 152.047C48.8643 150.579 53.6876 146.595 55.1556 146.595V152.886H49.7031C49.2837 152.886 48.8643 152.467 48.8643 152.047Z" fill="#355D67"/>
<path d="M61.265 146.595H54.9736V152.886H61.265V146.595Z" fill="#355D67"/>
<path d="M67.3724 146.595H61.0811V152.886H67.3724V146.595Z" fill="#355D67"/>
<path d="M73.4798 146.595H67.1885V152.886H73.4798V146.595Z" fill="#355D67"/>
<path d="M79.5892 146.595H73.2979V152.886H79.5892V146.595Z" fill="#355D67"/>
<path d="M85.6966 146.595H79.4053V152.886H85.6966V146.595Z" fill="#355D67"/>
<path d="M91.805 146.595H85.5137V152.886H91.805V146.595Z" fill="#355D67"/>
<path d="M97.9124 146.595H91.6211V152.886H97.9124V146.595Z" fill="#355D67"/>
<path d="M104.021 146.595H97.7295V152.886H104.021V146.595Z" fill="#355D67"/>
<path d="M110.129 146.595H103.838V152.886H110.129V146.595Z" fill="#355D67"/>
<path d="M116.237 146.595H109.945V152.886H116.237V146.595Z" fill="#355D67"/>
<path d="M127.615 152.886C126.147 152.886 122.162 148.063 122.162 146.595H128.453V152.047C128.453 152.467 128.034 152.886 127.615 152.886Z" fill="#355D67"/>
<path d="M158.993 152.886H152.702V148.692C152.702 147.538 153.646 146.595 154.799 146.595H158.993V152.886Z" fill="#355D67"/>
<path d="M165.103 147.433C165.103 148.901 160.28 152.886 158.812 152.886V146.595H164.264C164.683 146.595 165.103 147.014 165.103 147.433Z" fill="#355D67"/>
<path d="M207.23 149.531C206.286 147.748 204.294 146.49 202.826 146.595C201.463 146.699 201.149 148.272 202.092 149.95C203.141 151.733 205.028 152.991 206.496 152.886C207.964 152.781 208.279 151.208 207.23 149.531Z" fill="#355D67"/>
<path d="M18.5081 152.703H12.2168V158.994H18.5081V152.703Z" fill="#355D67"/>
<path d="M36.8314 152.703V158.994H32.6372C31.4837 158.994 30.54 158.05 30.54 156.897V152.703H36.8314Z" fill="#355D67"/>
<path d="M42.9398 152.703H36.6484V158.994H42.9398V152.703Z" fill="#355D67"/>
<path d="M61.265 152.703V158.994H57.0707C55.9173 158.994 54.9736 158.05 54.9736 156.897V152.703H61.265Z" fill="#355D67"/>
<path d="M67.3724 152.703H61.0811V158.994H67.3724V152.703Z" fill="#355D67"/>
<path d="M73.4798 152.703H67.1885V158.994H73.4798V152.703Z" fill="#355D67"/>
<path d="M104.021 152.703H97.7295V158.994H104.021V152.703Z" fill="#355D67"/>
<path d="M116.237 152.703H109.945V158.994H116.237V152.703Z" fill="#355D67"/>
<path d="M116.055 158.994V152.703H120.249C121.402 152.703 122.346 153.646 122.346 154.8V158.994H116.055Z" fill="#355D67"/>
<path d="M146.148 155.639C145.204 153.856 143.212 152.598 141.744 152.703C140.381 152.808 140.067 154.38 141.01 156.058C142.059 157.841 143.946 159.099 145.414 158.994C146.882 158.889 147.197 157.316 146.148 155.639Z" fill="#355D67"/>
<path d="M158.993 152.703H152.702V158.994H158.993V152.703Z" fill="#355D67"/>
<path d="M189.535 158.994H183.243V154.8C183.243 153.646 184.187 152.703 185.34 152.703H189.535V158.994Z" fill="#355D67"/>
<path d="M195.643 152.703H189.352V158.994H195.643V152.703Z" fill="#355D67"/>
<path d="M201.751 153.542C201.751 155.01 196.928 158.994 195.46 158.994V152.703H200.912C201.332 152.703 201.751 153.122 201.751 153.542Z" fill="#355D67"/>
<path d="M17.6693 165.102C16.2013 165.102 12.2168 160.279 12.2168 158.811H18.5081V164.263C18.5081 164.683 18.0887 165.102 17.6693 165.102Z" fill="#355D67"/>
<path d="M30.0954 161.747C29.1517 159.964 27.1595 158.706 25.6915 158.811C24.3283 158.916 24.0138 160.488 24.9575 162.166C26.006 163.949 27.8934 165.207 29.3614 165.102C30.8294 164.997 31.144 163.424 30.0954 161.747Z" fill="#355D67"/>
<path d="M42.9398 158.811V165.102H38.7456C37.5921 165.102 36.6484 164.158 36.6484 163.005V158.811H42.9398Z" fill="#355D67"/>
<path d="M49.0482 158.811H42.7568V165.102H49.0482V158.811Z" fill="#355D67"/>
<path d="M55.1556 159.65C55.1556 161.118 50.3322 165.102 48.8643 165.102V158.811H54.3168C54.7362 158.811 55.1556 159.23 55.1556 159.65Z" fill="#355D67"/>
<path d="M67.3724 158.811H61.0811V165.102H67.3724V158.811Z" fill="#355D67"/>
<path d="M67.1885 158.811H73.4798V163.005C73.4798 164.158 72.5361 165.102 71.3827 165.102H67.1885V158.811Z" fill="#355D67"/>
<path d="M104.021 158.811V165.102H99.8266C98.6732 165.102 97.7295 164.158 97.7295 163.005V158.811H104.021Z" fill="#355D67"/>
<path d="M110.129 158.811H103.838V165.102H110.129V158.811Z" fill="#355D67"/>
<path d="M116.237 158.811H109.945V165.102H116.237V158.811Z" fill="#355D67"/>
<path d="M122.346 158.811H116.055V165.102H122.346V158.811Z" fill="#355D67"/>
<path d="M128.453 158.811H122.162V165.102H128.453V158.811Z" fill="#355D67"/>
<path d="M134.562 159.65C134.562 161.118 129.738 165.102 128.271 165.102V158.811H133.723C134.142 158.811 134.562 159.23 134.562 159.65Z" fill="#355D67"/>
<path d="M152.886 165.102H146.595V160.908C146.595 159.754 147.538 158.811 148.692 158.811H152.886V165.102Z" fill="#355D67"/>
<path d="M158.993 158.811H152.702V165.102H158.993V158.811Z" fill="#355D67"/>
<path d="M165.103 158.811H158.812V165.102H165.103V158.811Z" fill="#355D67"/>
<path d="M171.21 158.811H164.919V165.102H171.21V158.811Z" fill="#355D67"/>
<path d="M177.318 158.811H171.026V165.102H177.318V158.811Z" fill="#355D67"/>
<path d="M183.427 158.811H177.136V165.102H183.427V158.811Z" fill="#355D67"/>
<path d="M189.535 158.811H183.243V165.102H189.535V158.811Z" fill="#355D67"/>
<path d="M208.515 158.811C209.983 158.811 213.967 163.634 213.967 165.102H207.676V159.65C207.676 159.23 208.095 158.811 208.515 158.811Z" fill="#355D67"/>
<path d="M66.5336 171.21C65.0656 171.21 61.0811 166.387 61.0811 164.919H67.3724V170.371C67.3724 170.791 66.953 171.21 66.5336 171.21Z" fill="#355D67"/>
<path d="M78.9597 167.855C78.016 166.072 76.0237 164.814 74.5557 164.919C73.1926 165.024 72.878 166.597 73.8217 168.274C74.8703 170.057 76.7577 171.315 78.2257 171.21C79.6937 171.105 80.0082 169.533 78.9597 167.855Z" fill="#355D67"/>
<path d="M92.4599 164.919C93.9279 164.919 97.9124 169.742 97.9124 171.21H91.6211V165.758C91.6211 165.338 92.0405 164.919 92.4599 164.919Z" fill="#355D67"/>
<path d="M146.778 171.21H140.486V167.016C140.486 165.863 141.43 164.919 142.583 164.919H146.778V171.21Z" fill="#355D67"/>
<path d="M146.595 164.919H152.886V169.113C152.886 170.267 151.942 171.21 150.789 171.21H146.595V164.919Z" fill="#355D67"/>
<path d="M165.103 164.919H158.812V171.21H165.103V164.919Z" fill="#355D67"/>
<path d="M189.535 164.919H183.243V171.21H189.535V164.919Z" fill="#355D67"/>
<path d="M207.859 171.21H201.567V167.016C201.567 165.863 202.511 164.919 203.664 164.919H207.859V171.21Z" fill="#355D67"/>
<path d="M207.676 164.919H213.967V169.113C213.967 170.267 213.023 171.21 211.87 171.21H207.676V164.919Z" fill="#355D67"/>
<path d="M97.0736 177.318C95.6056 177.318 91.6211 172.495 91.6211 171.027H97.9124V176.48C97.9124 176.899 97.493 177.318 97.0736 177.318Z" fill="#355D67"/>
<path d="M104.677 171.027C106.145 171.027 110.129 175.85 110.129 177.318H103.838V171.866C103.838 171.446 104.257 171.027 104.677 171.027Z" fill="#355D67"/>
<path d="M122.162 176.48C122.162 175.012 126.985 171.027 128.453 171.027V177.318H123.001C122.582 177.318 122.162 176.899 122.162 176.48Z" fill="#355D67"/>
<path d="M134.562 171.866C134.562 173.334 129.738 177.318 128.271 177.318V171.027H133.723C134.142 171.027 134.562 171.446 134.562 171.866Z" fill="#355D67"/>
<path d="M146.778 171.027H140.486V177.318H146.778V171.027Z" fill="#355D67"/>
<path d="M158.993 177.318H152.702V173.124C152.702 171.971 153.646 171.027 154.799 171.027H158.993V177.318Z" fill="#355D67"/>
<path d="M165.103 171.027H158.812V177.318H165.103V171.027Z" fill="#355D67"/>
<path d="M176.689 173.963C175.745 172.18 173.753 170.922 172.285 171.027C170.922 171.132 170.608 172.705 171.551 174.382C172.6 176.165 174.487 177.423 175.955 177.318C177.423 177.213 177.738 175.641 176.689 173.963Z" fill="#355D67"/>
<path d="M189.535 171.027H183.243V177.318H189.535V171.027Z" fill="#355D67"/>
<path d="M195.643 171.027H189.352V177.318H195.643V171.027Z" fill="#355D67"/>
<path d="M201.751 171.027H195.46V177.318H201.751V171.027Z" fill="#355D67"/>
<path d="M207.859 171.027H201.567V177.318H207.859V171.027Z" fill="#355D67"/>
<path d="M73.2979 182.588C73.2979 181.12 78.1212 177.135 79.5892 177.135V183.426H74.1367C73.7173 183.426 73.2979 183.007 73.2979 182.588Z" fill="#355D67"/>
<path d="M85.6966 177.135H79.4053V183.426H85.6966V177.135Z" fill="#355D67"/>
<path d="M85.5137 183.426V177.135H89.7079C90.8613 177.135 91.805 178.079 91.805 179.232V183.426H85.5137Z" fill="#355D67"/>
<path d="M97.7295 182.588C97.7295 181.12 102.553 177.135 104.021 177.135V183.426H98.5683C98.1489 183.426 97.7295 183.007 97.7295 182.588Z" fill="#355D67"/>
<path d="M110.129 177.135H103.838V183.427H110.129V177.135Z" fill="#355D67"/>
<path d="M116.237 177.135H109.945V183.426H116.237V177.135Z" fill="#355D67"/>
<path d="M122.346 177.974C122.346 179.442 117.523 183.426 116.055 183.426V177.135H121.507C121.927 177.135 122.346 177.555 122.346 177.974Z" fill="#355D67"/>
<path d="M134.379 182.588C134.379 181.12 139.202 177.135 140.67 177.135V183.426H135.218C134.798 183.426 134.379 183.007 134.379 182.588Z" fill="#355D67"/>
<path d="M146.778 177.135H140.486V183.426H146.778V177.135Z" fill="#355D67"/>
<path d="M152.886 177.135H146.595V183.426H152.886V177.135Z" fill="#355D67"/>
<path d="M158.993 177.135H152.702V183.426H158.993V177.135Z" fill="#355D67"/>
<path d="M165.103 177.135H158.812V183.426H165.103V177.135Z" fill="#355D67"/>
<path d="M189.535 177.135H183.243V183.426H189.535V177.135Z" fill="#355D67"/>
<path d="M195.643 177.135H189.352V183.426H195.643V177.135Z" fill="#355D67"/>
<path d="M201.751 177.135H195.46V183.426H201.751V177.135Z" fill="#355D67"/>
<path d="M207.859 177.135H201.567V183.426H207.859V177.135Z" fill="#355D67"/>
<path d="M207.676 183.426V177.135H211.87C213.023 177.135 213.967 178.079 213.967 179.232V183.426H207.676Z" fill="#355D67"/>
<path d="M67.3724 189.535H61.0811V185.34C61.0811 184.187 62.0248 183.243 63.1782 183.243H67.3724V189.535Z" fill="#355D67"/>
<path d="M67.1885 189.535V183.243H71.3827C72.5361 183.243 73.4798 184.187 73.4798 185.34V189.535H67.1885Z" fill="#355D67"/>
<path d="M91.805 183.243V189.535H87.6108C86.4574 189.535 85.5137 188.591 85.5137 187.437V183.243H91.805Z" fill="#355D67"/>
<path d="M97.9124 184.082C97.9124 185.55 93.0891 189.535 91.6211 189.535V183.243H97.0736C97.493 183.243 97.9124 183.663 97.9124 184.082Z" fill="#355D67"/>
<path d="M110.129 183.243H103.838V189.535H110.129V183.243Z" fill="#355D67"/>
<path d="M123.001 183.243C124.469 183.243 128.453 188.067 128.453 189.535H122.162V184.082C122.162 183.663 122.582 183.243 123.001 183.243Z" fill="#355D67"/>
<path d="M145.939 189.535C144.471 189.535 140.486 184.711 140.486 183.243H146.778V188.696C146.778 189.115 146.358 189.535 145.939 189.535Z" fill="#355D67"/>
<path d="M165.103 183.243H158.812V189.535H165.103V183.243Z" fill="#355D67"/>
<path d="M171.21 183.243H164.919V189.535H171.21V183.243Z" fill="#355D67"/>
<path d="M177.318 183.243H171.026V189.535H177.318V183.243Z" fill="#355D67"/>
<path d="M183.427 183.243H177.136V189.535H183.427V183.243Z" fill="#355D67"/>
<path d="M189.535 183.243H183.243V189.535H189.535V183.243Z" fill="#355D67"/>
<path d="M195.643 183.243H189.352V189.535H195.643V183.243Z" fill="#355D67"/>
<path d="M201.751 183.243H195.46V189.535H201.751V183.243Z" fill="#355D67"/>
<path d="M207.859 183.243H201.567V189.535H207.859V183.243Z" fill="#355D67"/>
<path d="M207.676 183.243H213.967V187.438C213.967 188.591 213.023 189.535 211.87 189.535H207.676V183.243Z" fill="#355D67"/>
<path d="M67.3724 189.351H61.0811V195.643H67.3724V189.351Z" fill="#355D67"/>
<path d="M73.4798 189.351H67.1885V195.643H73.4798V189.351Z" fill="#355D67"/>
<path d="M79.5892 190.19C79.5892 191.658 74.7658 195.643 73.2979 195.643V189.351H78.7504C79.1698 189.351 79.5892 189.771 79.5892 190.19Z" fill="#355D67"/>
<path d="M110.129 189.351V195.643H105.935C104.782 195.643 103.838 194.699 103.838 193.546V189.351H110.129Z" fill="#355D67"/>
<path d="M116.237 189.351H109.945V195.643H116.237V189.351Z" fill="#355D67"/>
<path d="M122.346 189.351H116.055V195.643H122.346V189.351Z" fill="#355D67"/>
<path d="M128.453 189.351H122.162V195.643H128.453V189.351Z" fill="#355D67"/>
<path d="M134.562 189.351H128.271V195.643H134.562V189.351Z" fill="#355D67"/>
<path d="M134.379 195.643V189.351H138.573C139.727 189.351 140.67 190.295 140.67 191.448V195.643H134.379Z" fill="#355D67"/>
<path d="M147.434 189.351C148.902 189.351 152.886 194.175 152.886 195.643H146.595V190.19C146.595 189.771 147.014 189.351 147.434 189.351Z" fill="#355D67"/>
<path d="M165.103 189.351V195.643H160.909C159.755 195.643 158.812 194.699 158.812 193.546V189.351H165.103Z" fill="#355D67"/>
<path d="M171.21 189.351H164.919V195.643H171.21V189.351Z" fill="#355D67"/>
<path d="M188.696 195.643C187.228 195.643 183.243 190.819 183.243 189.351H189.535V194.804C189.535 195.223 189.115 195.643 188.696 195.643Z" fill="#355D67"/>
<path d="M201.751 189.351H195.46V195.643H201.751V189.351Z" fill="#355D67"/>
<path d="M201.567 189.351H207.859V193.546C207.859 194.699 206.915 195.643 205.762 195.643H201.567V189.351Z" fill="#355D67"/>
<path d="M66.5336 201.751C65.0656 201.751 61.0811 196.927 61.0811 195.459H67.3724V200.912C67.3724 201.331 66.953 201.751 66.5336 201.751Z" fill="#355D67"/>
<path d="M85.0671 198.395C84.1234 196.613 82.1311 195.355 80.6632 195.459C79.3 195.564 78.9855 197.137 79.9292 198.815C80.9777 200.597 82.8651 201.856 84.3331 201.751C85.8011 201.646 86.1157 200.073 85.0671 198.395Z" fill="#355D67"/>
<path d="M116.237 195.459H109.945V201.751H116.237V195.459Z" fill="#355D67"/>
<path d="M128.453 195.459V201.751H124.259C123.106 201.751 122.162 200.807 122.162 199.654V195.459H128.453Z" fill="#355D67"/>
<path d="M134.562 195.459H128.271V201.751H134.562V195.459Z" fill="#355D67"/>
<path d="M140.67 195.459H134.379V201.751H140.67V195.459Z" fill="#355D67"/>
<path d="M152.886 195.459V201.751H148.692C147.538 201.751 146.595 200.807 146.595 199.654V195.459H152.886Z" fill="#355D67"/>
<path d="M158.993 196.298C158.993 197.766 154.17 201.751 152.702 201.751V195.459H158.155C158.574 195.459 158.993 195.879 158.993 196.298Z" fill="#355D67"/>
<path d="M171.21 195.459H164.919V201.751H171.21V195.459Z" fill="#355D67"/>
<path d="M171.026 201.751V195.459H175.221C176.374 195.459 177.318 196.403 177.318 197.557V201.751H171.026Z" fill="#355D67"/>
<path d="M189.352 200.912C189.352 199.444 194.175 195.459 195.643 195.459V201.751H190.19C189.771 201.751 189.352 201.331 189.352 200.912Z" fill="#355D67"/>
<path d="M201.751 195.459H195.46V201.751H201.751V195.459Z" fill="#355D67"/>
<path d="M73.4798 207.859H67.1885V203.665C67.1885 202.511 68.1322 201.568 69.2856 201.568H73.4798V207.859Z" fill="#355D67"/>
<path d="M73.2979 207.859V201.568H77.4921C78.6455 201.568 79.5892 202.511 79.5892 203.665V207.859H73.2979Z" fill="#355D67"/>
<path d="M91.805 207.859H85.5137V203.665C85.5137 202.511 86.4574 201.568 87.6108 201.568H91.805V207.859Z" fill="#355D67"/>
<path d="M97.9124 201.568H91.6211V207.859H97.9124V201.568Z" fill="#355D67"/>
<path d="M104.021 202.406C104.021 203.874 99.1975 207.859 97.7295 207.859V201.568H103.182C103.601 201.568 104.021 201.987 104.021 202.406Z" fill="#355D67"/>
<path d="M116.237 201.568V207.859H112.042C110.889 207.859 109.945 206.915 109.945 205.762V201.568H116.237Z" fill="#355D67"/>
<path d="M122.346 202.406C122.346 203.874 117.523 207.859 116.055 207.859V201.568H121.507C121.927 201.568 122.346 201.987 122.346 202.406Z" fill="#355D67"/>
<path d="M134.562 201.568V207.859H130.368C129.214 207.859 128.271 206.915 128.271 205.762V201.568H134.562Z" fill="#355D67"/>
<path d="M134.379 201.568H140.67V205.762C140.67 206.915 139.727 207.859 138.573 207.859H134.379V201.568Z" fill="#355D67"/>
<path d="M165.103 207.859H158.812V203.665C158.812 202.511 159.755 201.568 160.909 201.568H165.103V207.859Z" fill="#355D67"/>
<path d="M171.21 201.568H164.919V207.859H171.21V201.568Z" fill="#355D67"/>
<path d="M177.318 201.568H171.026V207.859H177.318V201.568Z" fill="#355D67"/>
<path d="M183.427 202.406C183.427 203.874 178.604 207.859 177.136 207.859V201.568H182.588C183.008 201.568 183.427 201.987 183.427 202.406Z" fill="#355D67"/>
<path d="M201.751 201.568H195.46V207.859H201.751V201.568Z" fill="#355D67"/>
<path d="M73.4798 207.676V213.967H69.2856C68.1322 213.967 67.1885 213.023 67.1885 211.87V207.676H73.4798Z" fill="#355D67"/>
<path d="M73.2979 207.676H79.5892V211.87C79.5892 213.023 78.6455 213.967 77.4921 213.967H73.2979V207.676Z" fill="#355D67"/>
<path d="M91.805 207.676V213.967H87.6108C86.4574 213.967 85.5137 213.023 85.5137 211.87V207.676H91.805Z" fill="#355D67"/>
<path d="M91.6211 207.676H97.9124V211.87C97.9124 213.023 96.9687 213.967 95.8153 213.967H91.6211V207.676Z" fill="#355D67"/>
<path d="M140.486 213.128C140.486 211.66 145.31 207.676 146.778 207.676V213.967H141.325C140.906 213.967 140.486 213.548 140.486 213.128Z" fill="#355D67"/>
<path d="M152.886 207.676H146.595V213.967H152.886V207.676Z" fill="#355D67"/>
<path d="M158.993 207.676H152.702V213.967H158.993V207.676Z" fill="#355D67"/>
<path d="M165.103 207.676H158.812V213.967H165.103V207.676Z" fill="#355D67"/>
<path d="M171.21 207.676H164.919V213.967H171.21V207.676Z" fill="#355D67"/>
<path d="M171.026 207.676H177.318V211.87C177.318 213.023 176.374 213.967 175.221 213.967H171.026V207.676Z" fill="#355D67"/>
<path d="M189.352 213.128C189.352 211.66 194.175 207.676 195.643 207.676V213.967H190.19C189.771 213.967 189.352 213.548 189.352 213.128Z" fill="#355D67"/>
<path d="M201.751 207.676H195.46V213.967H201.751V207.676Z" fill="#355D67"/>
<path d="M207.859 208.515C207.859 209.982 203.035 213.967 201.567 213.967V207.676H207.02C207.439 207.676 207.859 208.095 207.859 208.515Z" fill="#355D67"/>
<path d="M54.9736 54.973V25.6541C54.9736 18.3244 48.8654 12.2162 41.5357 12.2162H25.6546C18.3249 12.2162 12.2168 18.3244 12.2168 25.6541V41.2298C12.2168 48.8649 18.3249 54.973 25.6546 54.973H54.9736ZM26.8763 18.3244H40.3141C44.8952 18.3244 48.8654 22.2946 48.8654 26.8757V48.8649H26.8763C22.2952 48.8649 18.3249 44.8946 18.3249 40.3135V26.8757C18.3249 22.2946 22.2952 18.3244 26.8763 18.3244Z" fill="#355D67"/>
<path d="M171.026 54.973H200.345C207.675 54.973 213.783 48.8649 213.783 41.5352V25.6541C213.783 18.3244 207.675 12.2162 200.345 12.2162L184.77 12.2162C177.135 12.2162 171.026 18.3244 171.026 25.6541V54.973ZM207.675 26.8757V40.3135C207.675 44.8946 203.705 48.8649 199.124 48.8649H177.135V26.8757C177.135 22.2946 181.105 18.3244 185.686 18.3244H199.124C203.705 18.3244 207.675 22.2946 207.675 26.8757Z" fill="#355D67"/>
<path d="M54.9736 171.027H25.6546C18.3249 171.027 12.2168 177.135 12.2168 184.465L12.2168 200.346C12.2168 207.676 18.3249 213.784 25.6546 213.784H41.2303C48.8654 213.784 54.9736 207.676 54.9736 200.346V171.027ZM18.3249 199.124V185.686C18.3249 181.105 22.2952 177.135 26.8763 177.135H48.8654V199.124C48.8654 203.705 44.8952 207.676 40.3141 207.676H26.8763C22.2952 207.676 18.3249 203.705 18.3249 199.124Z" fill="#355D67"/>
<path d="M42.7569 42.7568C36.9542 40.9243 30.2353 40.9243 24.4326 42.7568C26.265 36.9541 26.265 30.2351 24.4326 24.4324C30.2353 26.2649 36.9542 26.2649 42.7569 24.4324C40.9245 30.2351 40.9245 36.9541 42.7569 42.7568Z" fill="#355D67"/>
<path d="M201.567 42.7568C195.765 40.9243 189.046 40.9243 183.243 42.7568C185.076 36.9541 185.076 30.2351 183.243 24.4324C189.046 26.2649 195.765 26.2649 201.567 24.4324C199.735 30.2351 199.735 36.9541 201.567 42.7568Z" fill="#355D67"/>
<path d="M42.7569 201.568C36.9542 199.735 30.2353 199.735 24.4326 201.568C26.265 195.765 26.265 189.046 24.4326 183.243C30.2353 185.076 36.9542 185.076 42.7569 183.243C40.9245 189.046 40.9245 195.765 42.7569 201.568Z" fill="#355D67"/>
</svg>
