<svg width="1066" height="719" viewBox="0 0 1066 719" fill="none" xmlns="http://www.w3.org/2000/svg">
<path d="M553.988 506.675C466.392 500.196 421.371 490.684 382.726 413.766L294.027 389C319.361 431.584 310.54 453.399 294.473 492.278C383.03 548.265 438.364 555.548 538.949 560.539C532.414 539.09 534.632 527.26 553.988 506.675Z" fill="#431616" stroke="#431616" stroke-width="10"/>
<path d="M553.988 587.675C466.392 581.196 421.371 571.684 382.726 494.766L294.027 470C319.361 512.584 310.54 534.399 294.473 573.278C383.03 629.265 438.364 636.548 538.949 641.539C532.414 620.09 534.632 608.26 553.988 587.675Z" fill="#9F2B2C" stroke="#9F2B2C" stroke-width="10"/>
<path d="M428 547L305.5 521C305.58 498.776 296.065 487.049 290 463.5L407.5 519.5L428 547Z" fill="#431616"/>
<path d="M911.681 162.272C802.78 224.934 730.311 244.366 590.88 265.063L493.883 341.449L534.608 479.932C568.885 444.018 589.782 428.634 629.777 408.898C687.825 437.916 703.479 470.763 718.551 541.96C743.195 490.756 752.226 480.719 768.626 476.782C785.025 472.845 823.396 502.303 827.783 531.695C827.783 531.695 854.87 468.548 870.589 463.574C880.591 460.409 901.499 470.337 914.25 512.045C929.444 441.493 1020.37 318.454 1020.37 318.454C1020.37 318.454 877.692 206.419 911.681 162.272Z" fill="#9F2B2C" stroke="#9F2B2C" stroke-width="10"/>
<path d="M650 291.5C622.834 357.825 590.703 295.695 543 299L546 489.5C672.279 534.735 697.859 545.203 860 517.5C874 451 906.5 474 956.5 409.5C822.587 402.75 738.954 360.657 650 291.5Z" fill="#431616"/>
<path d="M424 255C433.6 256.6 593.333 345 672 389L645 440L577 418.5L414.5 531C349.333 500.667 229.796 439.816 225 440C208.966 440.614 202.771 581.225 251 650C495.4 651.685 629.154 667.091 862 718.5C584.668 682.56 428.289 681.044 148.5 696.5C179.523 569.254 125.479 502.923 73.5 381.5C186.333 338.667 414.4 253.4 424 255Z" fill="#9F2B2C"/>
<path d="M580.5 421L624 359L659 372L615.5 434L580.5 421Z" fill="#431616"/>
<path d="M913.668 422.637C800.278 421.626 742.751 402.108 655.132 320.445C635.023 396.048 612.986 427.232 553.641 462.906C598.319 503.877 616.199 530.208 623.308 588.848C634.251 544.595 644.717 527.55 669.795 508.818C696.627 559.871 720.83 567.774 777.385 551.345C797.229 577.409 794.657 598.442 768.367 646.186C806.713 608.33 829.25 589.51 886.046 594.295C869.967 520.653 881.908 484.517 913.668 422.637Z" fill="#9F2B2C" stroke="#9F2B2C" stroke-width="10"/>
<path d="M831.102 535.279C816.834 516.219 805.005 510.341 780.621 503.983C805.467 496.113 818.876 491.292 834.46 518.614C828.374 524.812 830.241 528.63 831.102 535.279Z" fill="#431616" stroke="#431616" stroke-width="10"/>
<path d="M655.28 462.705C678.923 459.9 691.337 464.415 712.753 477.695C701.325 454.272 695.572 441.235 665.037 448.783C664.744 457.465 660.69 458.744 655.28 462.705Z" fill="#431616" stroke="#431616" stroke-width="10"/>
<path d="M671.836 552.329L660.846 515.802L682.838 524.495L747.372 550.003L765.759 557.271L736.37 577.837L671.836 552.329Z" fill="#C88D35" stroke="#C88D35" stroke-width="10"/>
<path d="M681.669 485.042L635.477 506.393L668.128 519.299L763.942 557.172L791.241 567.962L777.483 522.914L681.669 485.042Z" fill="#E0A03F" stroke="#E0A03F" stroke-width="10"/>
<path d="M895 391L958 403.698L899.725 426.714L958 441" stroke="#E0A03F" stroke-width="11"/>
<path d="M849 309L912 321.698L853.725 344.714L912 359" stroke="#E0A03F" stroke-width="15"/>
<path d="M823 447L863 455L826 469.5L863 478.5" stroke="#E0A03F" stroke-width="8"/>
<path d="M87.2437 237.103C217.659 264.826 297.309 260.748 445.206 236.018L566 329.5L562.001 420C515.763 394.893 498.741 401.136 451.895 394.27C402.384 442.64 392.454 447.036 400.001 524C351.001 504.999 312.877 477.611 295.001 479C277.124 480.388 263.026 415.828 268.001 447C268.001 447 242.96 528.342 225.441 528.459C214.292 528.534 196.291 545.426 196.74 591.795C144.001 536 92.0008 458.5 92.0008 458.5C92.0008 458.5 135.828 270.631 87.2437 237.103Z" fill="#431616"/>
<path d="M78.8282 208.885C206.31 236.376 284.099 232.658 428.485 209.005L548.541 253.829L552.096 403.614C506.847 378.955 481.322 370.358 435.54 363.502C387.336 410.554 382.254 447.979 389.879 523.13C349.317 480.308 337.213 473.243 319.756 474.54C302.299 475.837 273.685 517.098 278.647 547.542C278.647 547.542 231.892 493.686 214.779 493.743C203.889 493.779 186.362 510.208 186.952 555.473C149.61 490.534 20.7969 397.67 20.7969 397.67C20.7969 397.67 126.396 241.773 78.8282 208.885Z" fill="#9F2B2C" stroke="#9F2B2C" stroke-width="10"/>
</svg>
