<svg width="960" height="540" viewBox="0 0 960 540" fill="none" xmlns="http://www.w3.org/2000/svg">
<rect width="960" height="540" fill="#FEF3B1"/>
<path d="M243.932 424.5C282.6 478.965 313.336 499.141 383.932 516C407.008 491.531 482.628 472.054 532.932 492L434.932 381C340.675 326.682 283.364 299.698 284.932 171C233.71 269.294 218.837 323.956 243.932 424.5Z" fill="#9F2B2C" stroke="#9F2B2C"/>
<path d="M306.483 383.743C332.475 445.602 368.551 475.348 455.238 523.278C455.783 495.004 504.432 512 504.432 512C504.432 512 446.507 413.213 475.331 373.621C389.274 315.109 369.662 260.183 349.913 150.447C309.232 228.576 298.432 278.938 306.483 383.743Z" fill="#E0A03F" stroke="#E0A03F"/>
<path d="M715.926 424.5C677.258 478.965 646.522 499.141 575.926 516C552.85 491.531 511.736 480.554 461.432 500.5L524.926 381C619.182 326.682 676.494 299.698 674.926 171C726.147 269.294 741.021 323.956 715.926 424.5Z" fill="#9F2B2C" stroke="#9F2B2C"/>
<path d="M653.375 383.743C627.383 445.602 591.307 475.348 504.62 523.278C504.074 495.004 440.432 511.5 440.432 511.5C440.432 511.5 513.351 413.213 484.526 373.621C570.584 315.109 590.195 260.183 609.944 150.447C650.625 228.576 661.426 278.938 653.375 383.743Z" fill="#E0A03F" stroke="#E0A03F"/>
<path d="M336.912 342.041C354.407 406.505 453.634 523 453.634 523C453.634 523 464.805 486.918 505.134 523L531.189 367.135C461.472 283.624 416.995 238.517 462.885 118.269C380.886 192.845 348.061 239.014 336.912 342.041Z" fill="#9F2B2C" stroke="#9F2B2C"/>
<path d="M627.293 342.041C609.799 406.505 510.571 523 510.571 523C510.571 523 499.4 486.918 459.071 523L433.016 367.135C502.733 283.624 547.21 238.517 501.32 118.269C583.319 192.845 616.144 239.014 627.293 342.041Z" fill="#9F2B2C" stroke="#9F2B2C"/>
</svg>
