<svg width="3201" height="360" viewBox="0 0 3201 360" fill="none" xmlns="http://www.w3.org/2000/svg">
<g clip-path="url(#clip0_200_185)">
<rect width="3201" height="360" fill="#E0A03F"/>
<path d="M1222.5 5C1228.1 5 1295.83 -0.333333 1329 -3C1352.26 28.9116 1367.79 46.0202 1422.5 68C1475.28 89.2549 1505.61 99.9583 1571 100.5C1568.36 142.379 1573.08 167.102 1598 214.5C1593.14 217.598 1680.3 238.392 1719.44 247.279C1723.66 247.927 1727.54 248.664 1731 249.5C1744.71 252.819 1736.8 251.219 1719.44 247.279C1669.18 239.559 1571 244.5 1571 244.5C1571 244.5 1538.24 161.57 1508.5 137C1466.78 115.167 1443.32 116.19 1401.5 114.5L1289 163.5L1246.5 272C1290.55 276.354 1313.73 281.521 1365.5 272C1380.68 293.758 1394.31 302.089 1422.5 314C1455.33 322.191 1474.3 314.453 1507.67 300.838L1508.5 300.5C1524.34 323.964 1535.05 337.009 1558.5 360C1537.87 344.06 1525.75 336.366 1501.5 328.5C1470.62 332.029 1453.28 335.631 1422.5 345C1392.76 330.827 1374.94 326.756 1343 320C1310.98 320.824 1261.73 343.94 1260.94 350.933C1261.03 351.446 1261.05 351.649 1261 351.5L1154 376.5L1028 360L1059 1C1122.86 11.4922 1160.64 24.325 1222.5 5Z" fill="#431616"/>
<path d="M1222.5 5C1228.1 5 1295.83 -0.333333 1329 -3C1352.26 28.9116 1367.79 46.0202 1422.5 68C1475.28 89.2549 1505.61 99.9583 1571 100.5C1568.36 142.379 1573.08 167.102 1598 214.5C1590.99 218.971 1775.65 260.305 1731 249.5C1686.35 238.695 1571 244.5 1571 244.5C1571 244.5 1538.24 161.57 1508.5 137C1466.78 115.167 1443.32 116.19 1401.5 114.5M1222.5 5L1187 39.5C1232.88 36.0417 1259.32 32.5622 1298 44.5C1344.81 61.0539 1366.72 77.6482 1401.5 114.5M1222.5 5C1160.64 24.325 1122.86 11.4922 1059 1L1028 360L1154 376.5L1261 351.5M1401.5 114.5L1332.5 100.5L1280.5 63.5C1258.67 65 1214.1 68.8 1210.5 72M1401.5 114.5L1289 163.5M1210.5 72L1289 163.5M1210.5 72L1185 38M1289 163.5L1246.5 272M1246.5 272C1290.55 276.354 1313.73 281.521 1365.5 272C1380.68 293.758 1394.31 302.089 1422.5 314C1455.6 322.258 1474.61 314.324 1508.5 300.5C1524.34 323.964 1535.05 337.009 1558.5 360C1537.87 344.06 1525.75 336.366 1501.5 328.5C1470.62 332.029 1453.28 335.631 1422.5 345C1392.76 330.827 1374.94 326.756 1343 320C1310.05 320.848 1258.86 345.3 1261 351.5M1246.5 272C1250.5 298.5 1261.65 353.39 1261 351.5" stroke="#431616" stroke-width="3"/>
<path d="M2340.5 163.5C2340.5 163.5 2323.96 171.096 2299.22 182.131C2252.17 204.409 2176.66 243.532 2137 282C2014.59 226.787 1942.93 203.728 1819.88 178.149C1836.47 214.799 1861.62 250.282 1912.5 300C2011.31 325.61 2074.05 328.411 2190 327L1912.5 346C1857.1 259.466 1819.12 211.129 1771.96 169.09C1704.32 158.255 1658.58 162.265 1588.5 198.5L1509 234L1532.5 258.5C1572.86 291.749 1587.08 318.453 1673 308C1701.22 301.811 1720.8 293.749 1741.62 282.48C1753.53 274.644 1766.86 267.046 1782.5 258.5C1767.01 267.834 1754.09 275.732 1741.62 282.48C1715.09 299.933 1695.56 318.568 1673 351.5C1625.72 323.975 1601.88 322.099 1561 327L1509 315L1425 258.5L1375.25 236.25L1349.21 236.688C1350.12 244.355 1351.1 251.142 1353.55 257.304C1356.84 257.726 1360.44 258.111 1364.5 258.5L1364.26 258.531C1360.66 258.992 1357.53 259.392 1354.68 259.867C1358.59 267.944 1365.54 274.948 1379 281.5C1363.37 280.912 1352.14 283.46 1341.78 288.55C1364.98 300.312 1387.51 310.126 1428 311.5C1383.8 319.032 1362.74 312.642 1328 327C1320.25 322.712 1313.33 318.71 1306.73 315.296C1299.85 327.676 1300.16 337.461 1313.5 358.5L1251.5 367C1238.68 350.694 1229.65 345.731 1211.5 341.5C1150.38 317.245 1135.35 342.661 1094 358.5C1081.54 342.062 1049.79 381.802 1026 380L1054.5 246.5L1049.5 149L1057.5 104L1049.5 37L1065 -7C1086.56 6.24037 1097.45 14.3008 1127.5 23C1154.51 22.9544 1164.79 17.5785 1176 0C1202.06 12.9282 1220.26 13.3628 1256.5 7C1275.62 22.3946 1286.96 30.5673 1323.5 33C1357.96 30.5886 1377.26 28.4134 1411.5 12C1443.98 25.3168 1469.34 31.2657 1514 42C1471.87 34.2552 1448.81 27.0288 1404 33C1363.97 43.3597 1342.48 50.5569 1313.5 77C1282.75 53.6552 1263.58 47.1977 1226.5 45.5C1189.88 45.1369 1174.35 55.2094 1148.5 77C1147.08 76.9691 1145.69 76.9512 1144.32 76.9462C1165.25 86.0576 1201.18 81.8672 1231.5 76C1250.6 84.907 1265.9 96.8377 1292 87C1302.81 78.4421 1356.5 74 1356.5 74C1393.73 83.3382 1419.53 80.11 1464 77C1420.43 83.8167 1395.98 86.8908 1352.5 97.5C1331.33 103.796 1320.63 110.115 1302 122.5C1342.84 134.892 1368.57 137.731 1425 127.5C1469.72 113.417 1490.74 101.486 1525 77L1646.5 0C1688.84 14.3537 1722.7 20.8722 1780.72 25.3682C1794.86 25.7485 1808.59 26.6286 1821 28C1806.29 27.1764 1792.97 26.3174 1780.72 25.3682C1743.31 24.3619 1703.07 26.8542 1677 33L1617.5 67.5292C1688.66 92.1522 1692.28 92.9032 1777.5 45.5C1784.75 69.0106 1790.37 89.4464 1795.69 108C1908.78 173.497 1988.1 214.377 2137 250C2185.93 231.979 2255.43 201.666 2299.22 182.131C2323.72 170.533 2340.5 163.5 2340.5 163.5Z" fill="#9F2B2C"/>
<path d="M1795.69 108C1908.78 173.497 1988.1 214.377 2137 250C2213.57 221.799 2340.5 163.5 2340.5 163.5C2340.5 163.5 2197.31 223.506 2137 282C2010.38 224.888 1938.06 202.18 1807 175.5C1718.59 157.804 1670 156.356 1588.5 198.5M1588.5 198.5C1616.16 149.441 1636.52 126.348 1716 124.5C1793.97 181.196 1837.08 228.211 1912.5 346L2190 327C2074.05 328.411 2011.31 325.61 1912.5 300C1809.56 199.415 1811.93 157.096 1777.5 45.5C1692.28 92.9032 1688.66 92.1522 1617.5 67.5292M1588.5 198.5L1509 234M1617.5 67.5292L1677 33C1712.93 24.5313 1775.75 23 1821 28C1736.62 23.2753 1697.78 17.384 1646.5 0L1525 77M1617.5 67.5292L1525 77M1525 77C1490.74 101.486 1469.72 113.417 1425 127.5C1368.57 137.731 1342.84 134.892 1302 122.5M1532.5 258.5C1572.86 291.749 1587.08 318.453 1673 308C1718.13 298.105 1741.14 283.421 1782.5 258.5C1732.02 286.08 1705.69 303.782 1673 351.5C1625.72 323.975 1601.88 322.099 1561 327M1532.5 258.5L1561 327M1532.5 258.5L1509 234M1561 327L1509 315L1425 258.5L1375.25 236.25M1509 234L1375.25 236.25M1241.5 238.5L1302 122.5M1241.5 238.5L1375.25 236.25M1241.5 238.5L1278 237.886C1281.77 253.212 1283.2 264.279 1298.5 272.401M1241.5 238.5L1233.5 311.5C1276.83 295.444 1294.69 308.579 1328 327C1362.74 312.642 1383.8 319.032 1428 311.5C1379.62 309.858 1356.87 296.166 1328 281.5C1314.59 278.959 1305.21 275.963 1298.5 272.401M1241.5 238.5L1054.5 246.5M1302 122.5C1300.88 103.435 1356.5 74 1356.5 74M1302 122.5C1266.9 113.667 1247.94 111.06 1219 122.5M1302 122.5C1320.63 110.115 1331.33 103.796 1352.5 97.5C1395.98 86.8908 1420.43 83.8167 1464 77C1419.53 80.11 1393.73 83.3382 1356.5 74M1256.5 7C1275.62 22.3946 1286.96 30.5673 1323.5 33C1357.96 30.5886 1377.26 28.4134 1411.5 12C1443.98 25.3168 1469.34 31.2657 1514 42C1471.87 34.2552 1448.81 27.0288 1404 33C1363.97 43.3597 1342.48 50.5569 1313.5 77C1282.75 53.6552 1263.58 47.1977 1226.5 45.5M1256.5 7L1226.5 45.5M1256.5 7C1220.26 13.3628 1202.06 12.9282 1176 0C1164.79 17.5785 1154.51 22.9544 1127.5 23C1097.45 14.3008 1086.56 6.24037 1065 -7L1049.5 37L1057.5 104M1226.5 45.5C1189.88 45.1369 1174.35 55.2094 1148.5 77M1231.5 76C1250.6 84.907 1265.9 96.8377 1292 87C1302.81 78.4421 1356.5 74 1356.5 74M1231.5 76L1219 122.5M1231.5 76C1194.58 83.1425 1149.37 87.8 1133 69L1148.5 77M1219 122.5C1172.04 111.945 1150.43 117.434 1112 127.5L1049.5 149M1313.5 234C1309.58 241.985 1311.26 245.664 1325 250C1337.44 255.118 1346.44 256.768 1364.5 258.5C1352.43 260.045 1345.64 260.887 1337 266C1311.8 256.476 1297.91 253.834 1273.5 253M1251.5 367L1313.5 358.5C1298.83 335.363 1299.92 325.836 1309 311.5C1333.75 291.946 1347.4 280.311 1379 281.5C1348.59 266.695 1351.39 249.58 1347.5 223L1298.5 272.401M1251.5 367L1263 302.5L1298.5 272.401M1251.5 367C1238.68 350.694 1229.65 345.731 1211.5 341.5C1150.38 317.245 1135.35 342.661 1094 358.5C1081.54 342.062 1049.79 381.802 1026 380L1054.5 246.5M1057.5 104C1091.52 84.3216 1111.07 76.1863 1148.5 77M1057.5 104L1049.5 149M1049.5 149L1054.5 246.5" stroke="#9F2B2C" stroke-width="11" stroke-miterlimit="16"/>
<rect width="1067" height="360" fill="#9F2B2C"/>
</g>
<defs>
<clipPath id="clip0_200_185">
<rect width="3201" height="360" fill="white"/>
</clipPath>
</defs>
</svg>
