<svg width="177" height="347" viewBox="0 0 177 347" fill="none" xmlns="http://www.w3.org/2000/svg">
<path d="M142.639 270.498L177 295.903L142.639 298.79L119.829 270.498L110.589 298.79L159.098 347L98.7504 321.884L75.6509 278.87L51.1077 312.935L0 327.658L43.3116 298.79L69.876 258.085L63.2349 209.586L46.199 177.542L66.9886 150.694L57.46 179.851L69.876 204.967L81.137 166.572L94.4193 129.331L63.2349 84.0075L87.7781 23.9609V0L98.7504 20.208L78.8271 84.0075L124.16 116.629L139.175 53.4068L131.667 6.0624L159.098 55.7163L124.16 189.378L142.639 270.498Z" fill="#9F2B2C"/>
</svg>
